/* XPM */
static char *_b26263ccf05470bb20d0f26e38c23e03JqiGQEtPtuh0ue3[] = {
/* columns rows colors chars-per-pixel */
"64 64 66 1 ",
"  c None",
". c #3F217B",
"X c #973042",
"o c #923B44",
"O c #BD2B65",
"+ c #472789",
"@ c #5B3E87",
"# c #5A3F87",
"$ c #5A3E89",
"% c #FC6189",
"& c #FD638A",
"* c #FE658B",
"= c #FD658C",
"- c #FF658E",
"; c #FE678E",
": c #FB6B8E",
"> c #FC6A8E",
", c #FD6A8E",
"< c #FF6590",
"1 c #FF6A90",
"2 c #FD6C91",
"3 c #FE7294",
"4 c #FD7398",
"5 c #9460CF",
"6 c #AB9484",
"7 c #F6809A",
"8 c #F7819C",
"9 c #FD899E",
"0 c #FE889F",
"q c #FA8F9D",
"w c #FC8C9C",
"e c #FF80A2",
"r c #FE87A0",
"t c #FE88A1",
"y c #FC8EA3",
"u c #FC88A4",
"i c #FF8EA4",
"p c #FF8DA8",
"a c #E490A9",
"s c #FE91A6",
"d c #FB94A7",
"f c #FB96AA",
"g c #FBA0B3",
"h c #FCA8B4",
"j c #FEACBC",
"k c #FCB4C2",
"l c #C18DEC",
"z c #FDCBD5",
"x c #FAE1CF",
"c c #F6E2D4",
"v c #F9E2D1",
"b c #FBE2D1",
"n c #FBE2D3",
"m c #FCE2D1",
"M c #FCE2D2",
"N c #FCE3D2",
"B c #F9E4D6",
"V c #FCE4D4",
"C c #F9E4D8",
"Z c #F8E5D8",
"A c #F9EBFF",
"S c #FCECFF",
"D c #FFF1F1",
"F c snow",
"G c #FFFEFE",
"H c white",
/* pixels */
"                                                                ",
"                                                                ",
"                                  OOOO                          ",
"                                  OOOO                          ",
"        66                      OOrriiOO                        ",
"        66                      OOrriiOO                        ",
"      66CC66                  OOffFF8844oo                      ",
"      66CC66                  OOffFF8844oo                      ",
"      66BB66            OO    OOpp7711<<XX                      ",
"      66BB66            OO    OOpp7711<<XX                      ",
"        66CC66        OOjjOO    OO;;;;OO                        ",
"        66CC66        OOjjOO    OO;;;;OO                        ",
"        66vv66          OO        OOOO                          ",
"        66vv66          OO        OOOO                          ",
"        66cc66                              OO                  ",
"        66cc66                              OO                  ",
"          66MM66                          OOuuOO                ",
"          66MM66                          OOuuOO                ",
"          66VV66                            OO                  ",
"          66VV66                            OO                  ",
"            66vv66                                              ",
"            66vv66                                              ",
"          ++++++++++++++++++++++++++++++++++++++++++++          ",
"          ++++++++++++++++++++++++++++++++++++++++++++          ",
"        ..llllllllllllllllllOOqqHHssyyDDzz0wwwwwOO5555..        ",
"        ..llllllllllllllllllOOqqHHssyyDDzz0wwwwwOO5555..        ",
"          ....................OOgg22OOkkddtt,,::OO....          ",
"          ....................OOgg22OOkkddtt,,::OO....          ",
"        ....llllllll55##########OO,,##hhe433;;%%OO5555..        ",
"        ....llllllll55##########OO,,##hhee33;;%%OO5555..        ",
"        ..llllSSll55555555555555OO22##OOOO;;;;%%OO5555..        ",
"        ..llllSSll55555555555555OO22##OOOO;;;;%%OO5555..        ",
"        ..llllAAll55555555555555##aa####OO;;;;%%OO5555..        ",
"        ..llllAAll55555555555555##aa####OO;;;;%%OO5555..        ",
"      ..llllHH55555555555555555555OO##55##OO;;%%OO555555..      ",
"      ..llllHH55555555555555555555OO##55##OO;;%%OO555555..      ",
"      ..llllHH55555555555555555555##5555$$OO**%%OO555555..      ",
"      ..llllHH55555555555555555555##5555$$OO**%%OO555555..      ",
"      ..llll5555555555555555555555555555##OO;;OO##555555..      ",
"      ..llll5555555555555555555555555555##OO;;OO##555555..      ",
"      ..llll5555555555555555555555555555##OO;;OO55555555..      ",
"      ..llll5555555555555555555555555555##OO;;OO55555555..      ",
"      ..llll5555555555555555555555555555##OO;;OO55555555..      ",
"      ..llll5555555555555555555555555555##OO;;OO55555555..      ",
"        ..ll5555555555555555555555555555##OO;;OO555555..        ",
"        ..ll5555555555555555555555555555##OO;;OO555555..        ",
"        ..ll555555555555555555555555555555##OO##555555..        ",
"        ..ll555555555555555555555555555555##OO##555555..        ",
"        ..llll555555555555555555555555555555##55555555..        ",
"        ..llll555555555555555555555555555555##55555555..        ",
"          ..ll55555555555555555555555555555555555555..          ",
"          ..ll55555555555555555555555555555555555555..          ",
"            ..llll55555555555555555555555555555555..            ",
"            ..llll55555555555555555555555555555555..            ",
"            ......ll55555555555555555555555555......            ",
"            ......ll55555555555555555555555555......            ",
"          66MMMMMM....##5555555555555555......MMMMMM66          ",
"          66MMMMMM....##5555555555555555......MMMMMM66          ",
"        66xxMM6666    ....................    6666MMvv66        ",
"        66xxMM6666    ....................    6666MMvv66        ",
"          6666                                    6666          ",
"          6666                                    6666          ",
"                                                                ",
"                                                                "
};
