/* XPM */
static char *cdcc7320fba54e2bf2d67ca399740da3P445aDkwwuF3orU7[] = {
/* columns rows colors chars-per-pixel */
"64 64 5 1 ",
"  c #181722",
". c #201F2E",
"X c #2D2B3F",
"o c #4B4257",
"O c #695D72",
/* pixels */
"                                                                ",
"                                                                ",
"  ..OOOOOOOOOOOOOOOO......OOOOOO..OOOOOOOOOOOOOOOO......OOOOOO  ",
"  ..OOOOOOOOOOOOOOOO......OOOOOO..OOOOOOOOOOOOOOOO......OOOOOO  ",
"  OOooooOOooooooooooOO..OOooooOO..ooooOOooooooooooOO..OOooooOO  ",
"  OOooooOOooooooooooOO..OOooooOO..ooooOOooooooooooOO..OOooooOO  ",
"  OOooooooooXXooooooXX..OOooXXXX..ooooooooXXooooooXX..OOooXXXX  ",
"  OOooooooooXXooooooXX..OOooXXXX..ooooooooXXooooooXX..OOooXXXX  ",
"  OOooXXXXooooooooXX....OOXXXX....ooXXXXooooooooXX....OOXXXX..  ",
"  OOooXXXXooooooooXX....OOXXXX....ooXXXXooooooooXX....OOXXXX..  ",
"  OOooXXXXooooXXXXXX..............ooXXXXooooXXXXXX............  ",
"  OOooXXXXooooXXXXXX..............ooXXXXooooXXXXXX............  ",
"  ..XXXXXXXXXXXXXX....OOOOOOOOOO..XXXXXXXXXXXXXX....OOOOOOOOOO  ",
"  ..XXXXXXXXXXXXXX....OOOOOOOOOO..XXXXXXXXXXXXXX....OOOOOOOOOO  ",
"  ..................OOooooOOooOO..................OOooooOOooOO  ",
"  ..................OOooooOOooOO..................OOooooOOooOO  ",
"  ..................OOooooOOooOO..................OOooooOOooOO  ",
"  ..................OOooooOOooOO..................OOooooOOooOO  ",
"  ..OOOOOO........OOooOOooooooXX..OOOOOO........OOooOOooooooXX  ",
"  ..OOOOOO........OOooOOooooooXX..OOOOOO........OOooOOooooooXX  ",
"  OOooXXooOO..OOOOooooooooXXXXXX..ooXXooOO..OOOOooooooooXXXXXX  ",
"  OOooXXooOO..OOOOooooooooXXXXXX..ooXXooOO..OOOOooooooooXXXXXX  ",
"  OOooooooXX..OOOOOOOOooooXXXXXX..ooooooXX..OOOOOOOOooooXXXXXX  ",
"  OOooooooXX..OOOOOOOOooooXXXXXX..ooooooXX..OOOOOOOOooooXXXXXX  ",
"  OOOOOOooXX..OOOOOOOOooooooooXX..OOOOooXX..OOOOOOOOooooooooXX  ",
"  OOOOOOooXX..OOOOOOOOooooooooXX..OOOOooXX..OOOOOOOOooooooooXX  ",
"  OOOOOOooXX..OOOOooooooXXooXXXX..OOOOooXX..OOOOooooooXXooXXXX  ",
"  OOOOOOooXX..OOOOooooooXXooXXXX..OOOOooXX..OOOOooooooXXooXXXX  ",
"  OOooooXXXX..OOOOooooooooXXXXXX..ooooXXXX..OOOOooooooooXXXXXX  ",
"  OOooooXXXX..OOOOooooooooXXXXXX..ooooXXXX..OOOOooooooooXXXXXX  ",
"  OO............................OO............................  ",
"  OO............................OO............................  ",
"  ..OOOOOOOOOOOOOOOO......OOOOOO..OOOOOOOOOOOOOOOO......OOOOOO  ",
"  ..OOOOOOOOOOOOOOOO......OOOOOO..OOOOOOOOOOOOOOOO......OOOOOO  ",
"  OOooooOOooooooooooOO..OOooooOO..ooooOOooooooooooOO..OOooooOO  ",
"  OOooooOOooooooooooOO..OOooooOO..ooooOOooooooooooOO..OOooooOO  ",
"  OOooooooooXXooooooXX..OOooXXXX..ooooooooXXooooooXX..OOooXXXX  ",
"  OOooooooooXXooooooXX..OOooXXXX..ooooooooXXooooooXX..OOooXXXX  ",
"  OOooXXXXooooooooXX....OOXXXX....ooXXXXooooooooXX....OOXXXX..  ",
"  OOooXXXXooooooooXX....OOXXXX....ooXXXXooooooooXX....OOXXXX..  ",
"  OOooXXXXooooXXXXXX..............ooXXXXooooXXXXXX............  ",
"  OOooXXXXooooXXXXXX..............ooXXXXooooXXXXXX............  ",
"  ..XXXXXXXXXXXXXX....OOOOOOOOOO..XXXXXXXXXXXXXX....OOOOOOOOOO  ",
"  ..XXXXXXXXXXXXXX....OOOOOOOOOO..XXXXXXXXXXXXXX....OOOOOOOOOO  ",
"  ..................OOooooOOooOO..................OOooooOOooOO  ",
"  ..................OOooooOOooOO..................OOooooOOooOO  ",
"  ..................OOooooOOooOO..................OOooooOOooOO  ",
"  ..................OOooooOOooOO..................OOooooOOooOO  ",
"  ..OOOOOO........OOooOOooooooXX..OOOOOO........OOooOOooooooXX  ",
"  ..OOOOOO........OOooOOooooooXX..OOOOOO........OOooOOooooooXX  ",
"  OOooXXooOO..OOOOooooooooXXXXXX..ooXXooOO..OOOOooooooooXXXXXX  ",
"  OOooXXooOO..OOOOooooooooXXXXXX..ooXXooOO..OOOOooooooooXXXXXX  ",
"  OOooooooXX..OOOOOOOOooooXXXXXX..ooooooXX..OOOOOOOOooooXXXXXX  ",
"  OOooooooXX..OOOOOOOOooooXXXXXX..ooooooXX..OOOOOOOOooooXXXXXX  ",
"  OOOOOOooXX..OOOOOOOOooooooooXX..OOOOooXX..OOOOOOOOooooooooXX  ",
"  OOOOOOooXX..OOOOOOOOooooooooXX..OOOOooXX..OOOOOOOOooooooooXX  ",
"  OOOOOOooXX..OOOOooooooXXooXXXX..OOOOooXX..OOOOooooooXXooXXXX  ",
"  OOOOOOooXX..OOOOooooooXXooXXXX..OOOOooXX..OOOOooooooXXooXXXX  ",
"  OOooooXXXX..OOOOooooooooXXXXXX..ooooXXXX..OOOOooooooooXXXXXX  ",
"  OOooooXXXX..OOOOooooooooXXXXXX..ooooXXXX..OOOOooooooooXXXXXX  ",
"  OOXXXXXX....XXXXXXXXXXXXXXXX..OOXXXXXX....XXXXXXXXXXXXXXXX..  ",
"  OOXXXXXX....XXXXXXXXXXXXXXXX..OOXXXXXX....XXXXXXXXXXXXXXXX..  ",
"                                                                ",
"                                                                "
};
