/* XPM */
static char *_96f2c9e69f545f9d707bead9763c676CXoABAPSTOsyWtlX[] = {
/* columns rows colors chars-per-pixel */
"64 64 11 1 ",
"  c #181818",
". c #1D1D1D",
"X c #0D2A33",
"o c #152333",
"O c #113837",
"+ c #323232",
"@ c gray34",
"# c gray36",
"$ c #838383",
"% c #9F9F9F",
"& c #FAFFDC",
/* pixels */
"XXXXXXXXXXooooXXXXXXooXXXXXXXXOOXXXXXXOOXXXXXXOOXXOOOOXXXXOOXXOO",
"XXXXXXXXXXooooXXXXXXooXXXXXXXXOOXXXXXXOOXXXXXXOOXXOOOOXXXXOOXXOO",
"XXOOXXXXXXOOXXXXXXXXXXXXXXXXXXXXXXXXXXXXXXXXXXXXXXXXXXXXXXXXOOXX",
"XXOOXXXXXXOOXXXXXXXXXXXXXXXXXXXXXXXXXXXXXXXXXXXXXXXXXXXXXXXXOOXX",
"XXOOOOXXooooXXXXXXXXXXXXXXXXXXooooXXOOooXXXXXXXXXXXXXXOOXXXXOOXX",
"XXOOOOXXooooXXXXXXXXXXXXXXXXXXooooXXOOooXXXXXXXXXXXXXXOOXXXXOOXX",
"XXXXOOXXXXXXXXXXooXXXXXXXXXXOOXXOOXXXXXXXXXXOOXXXXXXOOXXOOXXXXXX",
"XXXXOOXXXXXXXXXXooXXXXXXXXXXOOXXOOXXXXXXXXXXOOXXXXXXOOXXOOXXXXXX",
"OOXXXXXXooOOOOOOXXXXXXXXOOXXXXXXXXXXXXXXXXXXXXXXooooooXXXXXXXXXX",
"OOXXXXXXooOOOOOOXXXXXXXXOOXXXXXXXXXXXXXXXXXXXXXXooooooXXXXXXXXXX",
"XXOOXXXXooXXXXXXXXOOooXXXXXXXXXXooXXXXXXXXooooooXXOOXXXXXXXXXXXX",
"XXOOXXXXooXXXXXXXXOOooXXXXXXXXXXooXXXXXXXXooooooXXOOXXXXXXXXXXXX",
"XXXXXXooooooOOOOXXOOXXXXOOXXXXXXXXOOOOXXOOXXOOOOOOXXXXXXXXXXXXXX",
"XXXXXXooooooOOOOXXOOXXXXOOXXXXXXXXOOOOXXOOXXOOOOOOXXXXXXXXXXXXXX",
"ooXXXXXXooXXXXXXOOOOXXXXooXXooXXXXXXXXXXXXOOXXXXXXXXXXXXXXXXXXXX",
"ooXXXXXXooXXXXXXOOOOXXXXooXXooXXXXXXXXXXXXOOXXXXXXXXXXXXXXXXXXXX",
"ooXXXXXXXXXXOOXXXXXXXXooXXooXXooXXXXXXXXXXOOXXXXXXXXXXXXXXXXoooo",
"ooXXXXXXXXXXOOXXXXXXXXooXXooXXooXXXXXXXXXXOOXXXXXXXXXXXXXXXXoooo",
"XXXXXXooooXXXXOOOOXXXXXXXXXXXXooXXXXXXXXOOXXooOOXXooXXXXXXooXXXX",
"XXXXXXooooXXXXOOOOXXXXXXXXXXXXooXXXXXXXXOOXXooOOXXooXXXXXXooXXXX",
"XXXXXXOOOOooXXXXXXXXXXXXoooo          XXOOXXXXXXXXXXXXOOXXXXXXXX",
"XXXXXXOOOOooXXXXXXXXXXXXoooo          XXOOXXXXXXXXXXXXOOXXXXXXXX",
"XXXXXXXXXXXXXXXXXXXXooXXXX  ++++@@@@@@  OOXXXXXXXXXXOOOOXXXXXXXX",
"XXXXXXXXXXXXXXXXXXXXooXXXX  ++@@@@@@@@  OOXXXXXXXXXXOOOOXXXXXXXX",
"ooXXXXooooXXXXOOXXooooOO  +++@@@@@@@@@@@  ooXXooXXXXooOOXXXXooXX",
"ooXXXXooooXXXXOOXXooooOO  +++@@@@@@@@@@@  ooXXooXXXXooOOXXXXooXX",
"ooooXXXXXXooOOOOXXXXOO  ++++@@&&&&&&@@@@@@  OOXXooXXooXXOOXXXXoo",
"ooooXXXXXXooOOOOXXXXOO  +++@@@&&&&&&@@@@@@  OOXXooXXooXXOOXXXXoo",
"XXXXXXXXOOXXXXOOXXoo  +++++@&&&&&&&&&&@@@@@@  XXXXXXooXXXXXXoooo",
"XXXXXXXXOOXXXXOOXXoo  +++++@&&@@&&@@&&@@@@@@  XXXXXXooXXXXXXoooo",
"XXXXXXXXXXXXXXXXooXX  +++++@&&@@&&@@&&@@@@@@  ooXXXXXXXXXXXXXXXX",
"XXXXXXXXXXXXXXXXooXX  +++++@&&&&&&&&&&@@@@@@  ooXXXXXXXXXXXXXXXX",
"XXOOOOXXXXXXXXXXXX  +++++++@&&&&&&&&&&@@@@@@@@  XXXXXXXXXXXXooXX",
"XXOOOOXXXXXXXXXXXX  +++++++@@@&&@@&&@@@@@@@@@@  XXXXXXXXXXXXooXX",
"XXXXXXOOooXXXXOOXX  ++++++++@@&&@@&&@@@@@@@@@@  XXXXXXXXXXXXXXXX",
"XXXXXXOOooXXXXOOXX  ++++++++@@@@@@@@@@@@@@@@@@  XXXXXXXXXXXXXXXX",
"XXooXXXXOOOOOOXXOO  +++++++++++@@@@@@@@@@@@@@@  XXXXXXXXooooXXXX",
"XXooXXXXOOOOOOXXOO  +++++++++++++@@@@@@@@@@@@@  XXXXXXXXooooXXXX",
"OOOOXXXXXXXXXXXXXX  ++++++++++++++++++@@@@++++  XXXXXXXXXXXXooOO",
"OOOOXXXXXXXXXXXXXX  ++++++++++++++++++++++++++  XXXXXXXXXXXXooOO",
"XXOOXXXXXXXXXXXXXXoo                          XXXXXXOOOOooXXXXXX",
"XXOOXXXXXXXXXXXXXXoo                          XXXXXXOOOOooXXXXXX",
"ooooXXXXXXOOOOXXXXXXXXXXoo..##########..ooXXXXooXXXXooooXXXXXXXX",
"ooooXXXXXXOOOOXXXXXXXXXXoo..##$$$$$$$$..ooXXXXooXXXXooooXXXXXXXX",
"XXXXXXXXXXXXooXXXXXXXXOOXX..##$$$%%%%%..OOXXXXXXooXXXXOOooooXXXX",
"XXXXXXXXXXXXooXXXXXXXXOOXX..##$$%%%%%%..OOXXXXXXooXXXXOOooooXXXX",
"XXXXXXXXXXXXooooooXXXXXXXX..##$$%%%%%%..XXXXXXXXXXOOOOXXooOOOOXX",
"XXXXXXXXXXXXooooooXXXXXXXX..##$$$$$$$$..XXXXXXXXXXOOOOXXooOOOOXX",
"XXXXXXXXOOXXOOOOOOooXXOOXXXX..........XXooXXXXXXXXXXXXOOXXXXXXXX",
"XXXXXXXXOOXXOOOOOOooXXOOXXXX..........XXooXXXXXXXXXXXXOOXXXXXXXX",
"OOXXXXXXooXXXXooXXXXooXXXXXXOOOOXXXXXXXXXXXXXXXXXXOOooOOXXXXXXXX",
"OOXXXXXXooXXXXooXXXXooXXXXXXOOOOXXXXXXXXXXXXXXXXXXOOooOOXXXXXXXX",
"XXXXXXXXXXXXXXXXXXXXXXXXOOXXooooooOOXXXXXXXXXXXXXXooXXXXooOOXXOO",
"XXXXXXXXXXXXXXXXXXXXXXXXOOXXooooooOOXXXXXXXXXXXXXXooXXXXooOOXXOO",
"XXOOXXOOXXXXXXXXXXXXXXXXXXooXXXXooooXXXXXXXXXXooooXXooooOOXXOOXX",
"XXOOXXOOXXXXXXXXXXXXXXXXXXooXXXXooooXXXXXXXXXXooooXXooooOOXXOOXX",
"XXXXXXXXXXXXooXXXXXXXXXXOOXXXXOOXXXXXXooXXXXXXXXXXooXXooooOOXXXX",
"XXXXXXXXXXXXooXXXXXXXXXXOOXXXXOOXXXXXXooXXXXXXXXXXooXXooooOOXXXX",
"XXXXXXXXXXXXXXXXOOXXXXXXXXOOOOXXXXXXXXXXXXXXXXXXOOXXOOXXooXXOOXX",
"XXXXXXXXXXXXXXXXOOXXXXXXXXOOOOXXXXXXXXXXXXXXXXXXOOXXOOXXooXXOOXX",
"XXXXXXXXXXooXXOOXXXXXXXXXXXXXXXXXXXXXXXXOOOOXXXXXXOOooXXXXXXXXoo",
"XXXXXXXXXXooXXOOXXXXXXXXXXXXXXXXXXXXXXXXOOOOXXXXXXOOooXXXXXXXXoo",
"OOXXOOOOXXXXXXXXXXXXooooXXXXOOOOXXXXXXXXXXOOXXXXXXOOXXXXOOXXXXXX",
"OOXXOOOOXXXXXXXXXXXXooooXXXXOOOOXXXXXXXXXXOOXXXXXXOOXXXXOOXXXXXX"
};
