/* XPM */
static char *e0cd8139275e4953ac5a2be87715c50cQyUk5JLrkCPUXCJU[] = {
/* columns rows colors chars-per-pixel */
"64 64 40 1 ",
"  c #0D2A33",
". c #152333",
"X c #113837",
"o c #D42665",
"O c #E0A372",
"+ c #481E92",
"@ c #6331AD",
"# c #6430AC",
"$ c #FF6A8B",
"% c #FF6C8C",
"& c #FF6F91",
"* c #FF7090",
"= c #FF7593",
"- c #FF7B96",
"; c #FF7B9A",
": c #A350F6",
"> c #FF859D",
", c #FF929E",
"< c #FF949E",
"1 c #FF8FA1",
"2 c #FF88A4",
"3 c #FF90A0",
"4 c #FF94A5",
"5 c #FF94AA",
"6 c #FF99A8",
"7 c #FFA4B4",
"8 c #FFACB5",
"9 c #FEACBC",
"0 c #FFB8C3",
"q c #CE8BFF",
"w c #FFCED6",
"e c #FFE7D2",
"r c #FFE7D4",
"t c #FFE8D7",
"y c #FFE8D9",
"u c #FAECFF",
"i c #FCEDFF",
"p c #FFF2F1",
"a c snow",
"s c white",
/* pixels */
"          ....      ..        XX      XX      XX  XXXX    XX  XX",
"          ....      ..        XX      XX      XX  XXXX    XX  XX",
"  XX      XX                                                XX  ",
"  XX      XX                                                XX  ",
"  XXXX  OO..                  ....oooo..              XX    XX  ",
"  XXXX  OO..                  ....oooo..              XX    XX  ",
"    XXOOyyOO    ..          XX  oo1144oo    XX      XX  XX      ",
"    XXOOyyOO    ..          XX  oo1144oo    XX      XX  XX      ",
"XX    OOttOOXXXX        XX    oo66aa>>;;oo      ......          ",
"XX    OOttOOXXXX        XX    oo66aa>>;;oo      ......          ",
"  XX    OOyyOO    XX..  oo    oo55>>==&&oo......  XX            ",
"  XX    OOyyOO    XX..  oo    oo55>>&&&&oo......  XX            ",
"      ..OOeeOOXX  XX  oo99oo    oo&&**ooXX  XXXXXX              ",
"      ..OOeeOOXX  XX  oo99oo    oo&&**ooXX  XXXXXX              ",
"..      OOrrOO  XXXX    oo  ..    oooo    XX                    ",
"..      OOrrOO  XXXX    oo  ..    oooo    XX                    ",
"..        OOrrOO      ..  ..  ..          XXoo              ....",
"..        OOrrOO      ..  ..  ..          XXoo              ....",
"      ....OOrrOOXX            ..        XXoo11oo  ..      ..    ",
"      ....OOrrOOXX            ..        XXoo11oo  ..      ..    ",
"      XXXX..OOrrOO      ....      XXXX  XX  oo        XX        ",
"      XXXX..OOrrOO      ....      XXXX  XX  oo        XX        ",
"          ++++++++++++++++++oo<<ss6644ppww1133,,oo++++XX        ",
"          ++++++++++++++++++oo<<ss6644ppww1133,,oo++++XX        ",
"..    ..++qqqqqqqqqqqqqqqqqq@@oo77==oo006633****oo::::++    ..  ",
"..    ..++qqqqqqqqqqqqqqqqqq@@oo77==oo006633****oo::::++    ..  ",
"....      ++++++++++++++++++++++oo**@@8822-=&&$$oo++++  XX    ..",
"....      ++++++++++++++++++++++oo**@@8822-=&&$$oo++++  XX    ..",
"        ++++qqqqqqqq::@@@@@@@@@@oo==@@oooo*=&&$$oo@@@@++    ....",
"        ++++qqqqqqqq::@@@@@@@@@@oo==@@oooo**&&$$oo@@@@++    ....",
"        ++qqqqiiqq::::::::::::::@@==@@@@oo**&&$$oo::::++        ",
"        ++qqqqiiqq::::::::::::::@@==@@@@oo**&&$$oo::::++        ",
"  XXXX  ++qqqquuqq::::::::::::::::oo##::@@oo&&$$oo::::++    ..  ",
"  XXXX  ++qqqquuqq::::::::::::::::oo##::@@oo&&$$oo::::++    ..  ",
"      ++qqqqss::::::::::::::::::::##::::@@oo%%%%oo::::::++      ",
"      ++qqqqss::::::::::::::::::::##::::@@oo%%%%oo::::::++      ",
"  ..  ++qqqqss::::::::::::::::::::::::::@@oo**oo##::::::++..    ",
"  ..  ++qqqqss::::::::::::::::::::::::::@@oo**oo##::::::++..    ",
"XXXX  ++qqqq::::::::::::::::::::::::::::@@oo**oo::::::::++  ..XX",
"XXXX  ++qqqq::::::::::::::::::::::::::::@@oo**oo::::::::++  ..XX",
"  XX  ++qqqq::::::::::::::::::::::::::::@@oo**oo::::::::++      ",
"  XX  ++qqqq::::::::::::::::::::::::::::@@oo**oo::::::::++      ",
"....  ++qqqq::::::::::::::::::::::::::::##oo**oo::::::::++      ",
"....  ++qqqq::::::::::::::::::::::::::::##oo**oo::::::::++      ",
"        ++qq::::::::::::::::::::::::::::::##oo##::::::++....    ",
"        ++qq::::::::::::::::::::::::::::::##oo##::::::++....    ",
"        ++qq::::::::::::::::::::::::::::::::@@::::::::++..XXXX  ",
"        ++qq::::::::::::::::::::::::::::::::@@::::::::++..XXXX  ",
"        ++qqqq::::::::::::::::::::::::::::::::::::::::++        ",
"        ++qqqq::::::::::::::::::::::::::::::::::::::::++        ",
"XX      ..++qq::::::::::::::::::::::::::::::::::::::++XX        ",
"XX      ..++qq::::::::::::::::::::::::::::::::::::::++XX        ",
"            ++qqqq::::::::::::::::::::::::::::::::++    ..XX  XX",
"            ++qqqq::::::::::::::::::::::::::::::::++    ..XX  XX",
"  XX  XX    OO++++qq::::::::::::::::::::::::::++++OO....XX  XX  ",
"  XX  XX    OO++++qq::::::::::::::::::::::::::++++OO....XX  XX  ",
"          OOrrrrrr++++++::::::::::::::::++++++rrrrrrOO....XX    ",
"          OOrrrrrr++++++::::::::::::::::++++++rrrrrrOO....XX    ",
"        OOeerrOOOO    ++++++++++++++++++++    OOOOeeeeOO..  XX  ",
"        OOeerrOOOO    ++++++++++++++++++++    OOOOeeeeOO..  XX  ",
"          OOOOXX                        XXXX      OOOO        ..",
"          OOOOXX                        XXXX      OOOO        ..",
"XX  XXXX            ....    XXXX          XX      XX    XX      ",
"XX  XXXX            ....    XXXX          XX      XX    XX      "
};
