/* XPM */
static char *_ff532aec3e14b9480ee138d454c489fH98pzuWdwociREyE[] = {
/* columns rows colors chars-per-pixel */
"64 64 43 1 ",
"  c #0D2A33",
". c #152333",
"X c #113837",
"o c #D42665",
"O c #E0A372",
"+ c #481E92",
"@ c #6331AD",
"# c #FC6189",
"$ c #FF658E",
"% c #FB6B8E",
"& c #FD6A8E",
"* c #FD6C91",
"= c #FF7090",
"- c #FF7493",
"; c #FE7294",
": c #FF7B9A",
"> c #A350F6",
", c #FF859D",
"< c #FD899E",
"1 c #FC8C9C",
"2 c #FF80A2",
"3 c #FE88A1",
"4 c #FF8EA2",
"5 c #FE91A6",
"6 c #FB94A7",
"7 c #FF95A6",
"8 c #FF94AA",
"9 c #FF9BAB",
"0 c #FEACBC",
"q c #CE8BFF",
"w c #FDCBD5",
"e c #FAE1CF",
"r c #F6E2D4",
"t c #F9E2D1",
"y c #FCE2D2",
"u c #F9E4D6",
"i c #FCE4D4",
"p c #F9E4D8",
"a c #F9EBFF",
"s c #FCECFF",
"d c #FFF1F1",
"f c snow",
"g c white",
/* pixels */
"          ....      ..        XX      XX      XX  XXXX    XX  XX",
"          ....      ..        XX      XX      XX  XXXX    XX  XX",
"  XX      XX                                                XX  ",
"  XX      XX                      oooo                      XX  ",
"  XXXX  OO..                  ....oooo..              XX    XX  ",
"  XXXX  OO..                  ..oo4477oo              XX    XX  ",
"    XXOOppOO    ..          XX  oo4477oo    XX      XX  XX      ",
"    XXOOppOO    ..          XXoo99ff,,::oo  XX      XX  XX      ",
"XX    OOuuOOXXXX        XX    oo99ff,,::oo      ......          ",
"XX    OOuuOOXXXX        XX    oo88,,--**oo      ......          ",
"  XX    OOppOO    XX.. oo     oo88,,****oo......  XX            ",
"  XX    OOppOO    XX.. oo       oo**==oo  ......  XX            ",
"      ..OOttOOXX  XX oo00oo     oo**==ooXX  XXXXXX              ",
"      ..OOttOOXX  XX oo00oo       oooo  XX  XXXXXX              ",
"..      OOrrOO  XXXX   oo.  ..    oooo    XX  oo                ",
"..      OOrrOO  XXXX   oo.  ..            XX  oo                ",
"..        OOyyOO      ..  ..  ..          XXoo44oo          ....",
"..        OOyyOO      ..  ..  ..          XXoo44oo          ....",
"      ....OOiiOOXX            ..        XX  ..oo  ..      ..    ",
"      ....OOiiOOXX            ..        XX  ..oo  ..      ..    ",
"      XXXX..OOttOO      ....      XXXX  XX            XX        ",
"      XXXX..OOttOO      ....      XXXX  XX            XX        ",
"          ++++++++++++++++++oo55dd55**ddww******oo++++XX        ",
"          ++++++++++++++++++oo55dd55**ddww******oo++++XX        ",
"..    ..++qqqqqqqqqqqqqqqqqq>>oo55&&ooww66<<<<11oo>>>>++    ..  ",
"..    ..++qqqqqqqqqqqqqqqqqq>>oo55&&ooww66<<<<11oo>>>>++    ..  ",
"....      ++++++++++++++++++++oo&&&&++oo6633&&%%oo++++  XX    ..",
"....      ++++++++++++++++++++oo&&&&++oo6633&&%%oo++++  XX    ..",
"        ++++qqqqqqqq>>@@@@@@@@@@&&&&@@oo22;*$$##oo@@@@++    ....",
"        ++++qqqqqqqq>>@@@@@@@@@@oo&&@@oo22;*$$##oo@@@@++    ....",
"        ++qqqqssqq>>>>>>>>>>>>>>oo&&>>>>oo$*$$oooo>>>>++        ",
"        ++qqqqssqq>>>>>>>>>>>>>>>>oo>>>>oo$$$$oo>>>>>>++        ",
"  XXXX  ++qqqqaaqq>>>>>>>>>>>>>>>>oo>>>>oo$$$$oo>>>>>>++    ..  ",
"  XXXX  ++qqqqaaqq>>>>>>>>>>>>>>>>>>>>>>oo$$$$oo>>>>>>++    ..  ",
"      ++qqqqgg>>>>>>>>>>>>>>>>>>>>>>>>>>oo$$oo>>>>>>>>>>++      ",
"      ++qqqqgg>>>>>>>>>>>>>>>>>>>>>>>>>>oo$$oo>>>>>>>>>>++      ",
"  ..  ++qqqqgg>>>>>>>>>>>>>>>>>>>>>>>>>>>>oo>>>>>>>>>>>>++..    ",
"  ..  ++qqqqgg>>>>>>>>>>>>>>>>>>>>>>>>>>>>oo>>>>>>>>>>>>++..    ",
"XXXX  ++qqqq>>>>>>>>>>>>>>>>>>>>>>>>>>>>>>>>>>>>>>>>>>>>++  ..XX",
"XXXX  ++qqqq>>>>>>>>>>>>>>>>>>>>>>>>>>>>>>>>>>>>>>>>>>>>++  ..XX",
"  XX  ++qqqq>>>>>>>>>>>>>>>>>>>>>>>>>>>>>>>>>>>>>>>>>>>>++      ",
"  XX  ++qqqq>>>>>>>>>>>>>>>>>>>>>>>>>>>>>>>>>>>>>>>>>>>>++      ",
"....  ++qqqq>>>>>>>>>>>>>>>>>>>>>>>>>>>>>>>>>>>>>>>>>>>>++      ",
"....  ++qqqq>>>>>>>>>>>>>>>>>>>>>>>>>>>>>>>>>>>>>>>>>>>>++      ",
"        ++qq>>>>>>>>>>>>>>>>>>>>>>>>>>>>>>>>>>>>>>>>>>++....    ",
"        ++qq>>>>>>>>>>>>>>>>>>>>>>>>>>>>>>>>>>>>>>>>>>++....    ",
"        ++qq>>>>>>>>>>>>>>>>>>>>>>>>>>>>>>>>>>>>>>>>>>++..XXXX  ",
"        ++qq>>>>>>>>>>>>>>>>>>>>>>>>>>>>>>>>>>>>>>>>>>++..XXXX  ",
"        ++qqqq>>>>>>>>>>>>>>>>>>>>>>>>>>>>>>>>>>>>>>>>++        ",
"        ++qqqq>>>>>>>>>>>>>>>>>>>>>>>>>>>>>>>>>>>>>>>>++        ",
"XX      ..++qq>>>>>>>>>>>>>>>>>>>>>>>>>>>>>>>>>>>>>>++XX        ",
"XX      ..++qq>>>>>>>>>>>>>>>>>>>>>>>>>>>>>>>>>>>>>>++XX        ",
"            ++qqqq>>>>>>>>>>>>>>>>>>>>>>>>>>>>>>>>++    ..XX  XX",
"            ++qqqq>>>>>>>>>>>>>>>>>>>>>>>>>>>>>>>>++    ..XX  XX",
"  XX  XX    OO++++qq>>>>>>>>>>>>>>>>>>>>>>>>>>++++OO....XX  XX  ",
"  XX  XX    OO++++qq>>>>>>>>>>>>>>>>>>>>>>>>>>++++OO....XX  XX  ",
"          OOyyyyyy++++++>>>>>>>>>>>>>>>>++++++yyyyyyOO....XX    ",
"          OOyyyyyy++++++>>>>>>>>>>>>>>>>++++++yyyyyyOO....XX    ",
"        OOeeyyOOOO    ++++++++++++++++++++    OOOOyyttOO..  XX  ",
"        OOeeyyOOOO    ++++++++++++++++++++    OOOOyyttOO..  XX  ",
"          OOOOXX                        XXXX      OOOO        ..",
"          OOOOXX                        XXXX      OOOO        ..",
"XX  XXXX            ....    XXXX          XX      XX    XX      ",
"XX  XXXX            ....    XXXX          XX      XX    XX      "
};
