/* XPM */
static char *_3eba7dfc61e47fced3ed62805b9f98abIyKNt4juGn15w8o[] = {
/* columns rows colors chars-per-pixel */
"64 64 5 1 ",
"  c #130B18",
". c #1A1023",
"X c #251731",
"o c #3B1D38",
"O c #512D40",
/* pixels */
"                                                                ",
"                                                                ",
"  ..OOOOOOOOOOOOOOOO......OOOOOO..OOOOOOOOOOOOOOOO......OOOOOO  ",
"  ..OOOOOOOOOOOOOOOO......OOOOOO..OOOOOOOOOOOOOOOO......OOOOOO  ",
"  OOooooOOooooooooooOO..OOooooOO..ooooOOooooooooooOO..OOooooOO  ",
"  OOooooOOooooooooooOO..OOooooOO..ooooOOooooooooooOO..OOooooOO  ",
"  OOooooooooXXooooooXX..OOooXXXX..ooooooooXXooooooXX..OOooXXXX  ",
"  OOooooooooXXooooooXX..OOooXXXX..ooooooooXXooooooXX..OOooXXXX  ",
"  OOooXXXXooooooooXX....OOXXXX....ooXXXXooooooooXX....OOXXXX..  ",
"  OOooXXXXooooooooXX....OOXXXX....ooXXXXooooooooXX....OOXXXX..  ",
"  OOooXXXXooooXXXXXX..............ooXXXXooooXXXXXX............  ",
"  OOooXXXXooooXXXXXX..............ooXXXXooooXXXXXX............  ",
"  ..XXXXXXXXXXXXXX....OOOOOOOOOO..XXXXXXXXXXXXXX....OOOOOOOOOO  ",
"  ..XXXXXXXXXXXXXX....OOOOOOOOOO..XXXXXXXXXXXXXX....OOOOOOOOOO  ",
"  ..................OOooooOOooOO..................OOooooOOooOO  ",
"  ..................OOooooOOooOO..................OOooooOOooOO  ",
"  ..................OOooooOOooOO..................OOooooOOooOO  ",
"  ..................OOooooOOooOO..................OOooooOOooOO  ",
"  ..OOOOOO........OOooOOooooooXX..OOOOOO........OOooOOooooooXX  ",
"  ..OOOOOO........OOooOOooooooXX..OOOOOO........OOooOOooooooXX  ",
"  OOooXXooOO..OOOOooooooooXXXXXX..ooXXooOO..OOOOooooooooXXXXXX  ",
"  OOooXXooOO..OOOOooooooooXXXXXX..ooXXooOO..OOOOooooooooXXXXXX  ",
"  OOooooooXX..OOOOOOOOooooXXXXXX..ooooooXX..OOOOOOOOooooXXXXXX  ",
"  OOooooooXX..OOOOOOOOooooXXXXXX..ooooooXX..OOOOOOOOooooXXXXXX  ",
"  OOOOOOooXX..OOOOOOOOooooooooXX..OOOOooXX..OOOOOOOOooooooooXX  ",
"  OOOOOOooXX..OOOOOOOOooooooooXX..OOOOooXX..OOOOOOOOooooooooXX  ",
"  OOOOOOooXX..OOOOooooooXXooXXXX..OOOOooXX..OOOOooooooXXooXXXX  ",
"  OOOOOOooXX..OOOOooooooXXooXXXX..OOOOooXX..OOOOooooooXXooXXXX  ",
"  OOooooXXXX..OOOOooooooooXXXXXX..ooooXXXX..OOOOooooooooXXXXXX  ",
"  OOooooXXXX..OOOOooooooooXXXXXX..ooooXXXX..OOOOooooooooXXXXXX  ",
"  OO............................OO............................  ",
"  OO............................OO............................  ",
"  ..OOOOOOOOOOOOOOOO......OOOOOO..OOOOOOOOOOOOOOOO......OOOOOO  ",
"  ..OOOOOOOOOOOOOOOO......OOOOOO..OOOOOOOOOOOOOOOO......OOOOOO  ",
"  OOooooOOooooooooooOO..OOooooOO..ooooOOooooooooooOO..OOooooOO  ",
"  OOooooOOooooooooooOO..OOooooOO..ooooOOooooooooooOO..OOooooOO  ",
"  OOooooooooXXooooooXX..OOooXXXX..ooooooooXXooooooXX..OOooXXXX  ",
"  OOooooooooXXooooooXX..OOooXXXX..ooooooooXXooooooXX..OOooXXXX  ",
"  OOooXXXXooooooooXX....OOXXXX....ooXXXXooooooooXX....OOXXXX..  ",
"  OOooXXXXooooooooXX....OOXXXX....ooXXXXooooooooXX....OOXXXX..  ",
"  OOooXXXXooooXXXXXX..............ooXXXXooooXXXXXX............  ",
"  OOooXXXXooooXXXXXX..............ooXXXXooooXXXXXX............  ",
"  ..XXXXXXXXXXXXXX....OOOOOOOOOO..XXXXXXXXXXXXXX....OOOOOOOOOO  ",
"  ..XXXXXXXXXXXXXX....OOOOOOOOOO..XXXXXXXXXXXXXX....OOOOOOOOOO  ",
"  ..................OOooooOOooOO..................OOooooOOooOO  ",
"  ..................OOooooOOooOO..................OOooooOOooOO  ",
"  ..................OOooooOOooOO..................OOooooOOooOO  ",
"  ..................OOooooOOooOO..................OOooooOOooOO  ",
"  ..OOOOOO........OOooOOooooooXX..OOOOOO........OOooOOooooooXX  ",
"  ..OOOOOO........OOooOOooooooXX..OOOOOO........OOooOOooooooXX  ",
"  OOooXXooOO..OOOOooooooooXXXXXX..ooXXooOO..OOOOooooooooXXXXXX  ",
"  OOooXXooOO..OOOOooooooooXXXXXX..ooXXooOO..OOOOooooooooXXXXXX  ",
"  OOooooooXX..OOOOOOOOooooXXXXXX..ooooooXX..OOOOOOOOooooXXXXXX  ",
"  OOooooooXX..OOOOOOOOooooXXXXXX..ooooooXX..OOOOOOOOooooXXXXXX  ",
"  OOOOOOooXX..OOOOOOOOooooooooXX..OOOOooXX..OOOOOOOOooooooooXX  ",
"  OOOOOOooXX..OOOOOOOOooooooooXX..OOOOooXX..OOOOOOOOooooooooXX  ",
"  OOOOOOooXX..OOOOooooooXXooXXXX..OOOOooXX..OOOOooooooXXooXXXX  ",
"  OOOOOOooXX..OOOOooooooXXooXXXX..OOOOooXX..OOOOooooooXXooXXXX  ",
"  OOooooXXXX..OOOOooooooooXXXXXX..ooooXXXX..OOOOooooooooXXXXXX  ",
"  OOooooXXXX..OOOOooooooooXXXXXX..ooooXXXX..OOOOooooooooXXXXXX  ",
"  OOXXXXXX....XXXXXXXXXXXXXXXX..OOXXXXXX....XXXXXXXXXXXXXXXX..  ",
"  OOXXXXXX....XXXXXXXXXXXXXXXX..OOXXXXXX....XXXXXXXXXXXXXXXX..  ",
"                                                                ",
"                                                                "
};
