/* XPM */
static char *_2b00a2ea7be44e6dbd46fa732b89252uO8tiCb6ChreHFJ6[] = {
/* columns rows colors chars-per-pixel */
"64 64 19 1 ",
"  c #0D2A33",
". c #152333",
"X c #113837",
"o c #4E291B",
"O c #007352",
"+ c #A83E58",
"@ c #00A17A",
"# c #71C45B",
"$ c #004EA4",
"% c #E76184",
"& c #E86184",
"* c #FF7CA5",
"= c #EF9497",
"- c #BCEB91",
"; c #B680E8",
": c #B4D9D5",
"> c #FFC1D4",
", c #FFE1D1",
"< c white",
/* pixels */
"          ....      ..        XX      XX      XX  XXXX    XX  XX",
"          ....      ..        XX      XX      XX  XXXX    XX  XX",
"  XX      XX      >>>>                                      XX  ",
"  XX      XX      >>>>                                      XX  ",
"  XXXX  ....    >>>>>>>>      ....  XX..              XX    XX  ",
"  XXXX  ....    >>>>>>>>      ....  XX..              XX    XX  ",
"    XX    >>>>>>>>>>>>>>    XX  XX          XX      XX  XX      ",
"    XX    >>>>>>>>>>>>>>    XX  XX          XX      XX  XX      ",
"XX      ..>>>>>>>>>>>>>>XX                      ......          ",
"XX      ..>>>>>>>>>>>>>>XX                      ......          ",
"  XX    ..>>>>>>>>;;;;;;;;;;    ..        ......  XX            ",
"  XX    ..>>>>>>>>;;;;;;;;;;    ..        ......  XX            ",
"      ......XXXX;;;;::::;;;;;;;;;;XXXX>>>>>>>>XXXX              ",
"      ......XXXX;;;;::::;;;;;;;;;;XXXX>>>>>>>>XXXX              ",
"..      ..      ;;::$$<<;;;;;;;;;;;;>>>>>>>>>>>>                ",
"..      ..      ;;::$$<<;;;;;;;;;;;;>>>>>>>>>>>>                ",
"..          XX  ;;<<$$$$;;;;;;;;>>>>>>>>>>>>>>>>>>          ....",
"..          XX  ;;<<$$$$;;;;;;;;>>>>>>>>>>>>>>>>>>          ....",
"      ....    XX;;;;<<<<;;;;>>>>>>>>>>>>>>>>>>>>>>..      ..    ",
"      ....    XX;;;;<<<<;;;;>>>>>>>>>>>>>>>>>>>>>>..      ..    ",
"      XXXX..    ;;;;;;;;>>>>>>++++++%%>>>>>>>>>>      XX        ",
"      XXXX..    ;;;;;;;;>>>>>>++++++%%>>>>>>>>>>      XX        ",
"                ;;;;;;>>>>>>++************>>>>      XXXX        ",
"                ;;;;;;>>>>>>++************>>>>      XXXX        ",
"..    ....    XX>>>>>>>>**********************..    ..XX    ..  ",
"..    ....    XX>>>>>>>>**********************..    ..XX    ..  ",
"....      ..XX>>>>>>>>************>>**>>********..  ..  XX    ..",
"....      ..XX>>>>>>>>************>>**>>********..  ..  XX    ..",
"        XX  >>>>>>>>%%******%%****>>%%>>**%%****    ..      ....",
"        XX  >>>>>>>>%%******%%****>>%%>>**%%****    ..      ....",
"          >>>>>>>>%%********%%******++****++****                ",
"          >>>>>>>>%%********%%******++****++****                ",
"  XXXX    >>>>>>>>**********==++++++++++++++++              ..  ",
"  XXXX    >>>>>>>>**********==++++++++++++++++              ..  ",
"      XX..>>**********,,****,,,,oo,,,,oo,,++                    ",
"      XX..>>**********,,****,,,,oo,,,,oo,,++                    ",
"  ..    XX>>**********,,****,,,,oo,,,,oo,,%%..          ....    ",
"  ..    XX>>**********,,****,,,,oo,,,,oo,,%%..          ....    ",
"XXXX          ********%%****,,>>,,,,&&>>>>%%%%XX            ..XX",
"XXXX          ********%%****,,>>,,,,&&>>>>%%%%XX            ..XX",
"  XX              ****%%++****OOOOOO@@%%%%%%%%%%    XXXX..      ",
"  XX              ****%%++****OOOOOO@@%%%%%%%%%%    XXXX..      ",
"....      XXXX    ****%%++******OO@@@@==%%%%%%%%    ....        ",
"....      XXXX    ****%%++******OO@@@@==%%%%%%%%    ....        ",
"            ..****%%%%%%,,==##OO@@@@@@====      ..    XX....    ",
"            ..****%%%%%%,,==##OO@@@@@@====      ..    XX....    ",
"            ....%%%%,,,,,,####----------==,,,,    XXXX  ..XXXX  ",
"            ....%%%%,,,,,,####----------==,,,,    XXXX  ..XXXX  ",
"        XX  XXXXXX,,,,,,####--@@----------,,,,,,      XX        ",
"        XX  XXXXXX,,,,,,####--@@----------,,,,,,      XX        ",
"XX      ..    ..  ,,,,,,##--@@@@----@@@@--,,,,,,  XX..XX        ",
"XX      ..    ..  ,,,,,,##--@@@@----@@@@--,,,,,,  XX..XX        ",
"                      OOOO@@@@@@@@@@@@@@@@@@      ..    ..XX  XX",
"                      OOOO@@@@@@@@@@@@@@@@@@      ..    ..XX  XX",
"  XX  XX              OOOO@@@@@@@@@@@@@@@@@@  ....  ....XX  XX  ",
"  XX  XX              OOOO@@@@@@@@@@@@@@@@@@  ....  ....XX  XX  ",
"            ..          XX  ,,,,    ==..          ..  ....XX    ",
"            ..          XX  ,,,,    ==..          ..  ....XX    ",
"                XX        XX,,,,    ==          XX  XX  ..  XX  ",
"                XX        XX,,,,    ==          XX  XX  ..  XX  ",
"          ..  XX            ******  %%%%XXXX      XX..        ..",
"          ..  XX            ******  %%%%XXXX      XX..        ..",
"XX  XXXX            ....    ********%%%%%%XX      XX    XX      ",
"XX  XXXX            ....    ********%%%%%%XX      XX    XX      "
};
