/* XPM */
static char *e70519c8d0ef4b89eab31bda4dcb33d60ZFGStUU0rXLnA2Z[] = {
/* columns rows colors chars-per-pixel */
"64 64 17 1 ",
"  c None",
". c #4E291B",
"X c #007352",
"o c #A83E58",
"O c #00A17A",
"+ c #71C45B",
"@ c #004EA4",
"# c #E76184",
"$ c #E86184",
"% c #FF7CA5",
"& c #EF9497",
"* c #BCEB91",
"= c #B680E8",
"- c #B4D9D5",
"; c #FFC1D4",
": c #FFE1D1",
"> c white",
/* pixels */
"                                                                ",
"                                                                ",
"                  ;;;;                                          ",
"                  ;;;;                                          ",
"                ;;;;;;;;                                        ",
"                ;;;;;;;;                                        ",
"          ;;;;;;;;;;;;;;                                        ",
"          ;;;;;;;;;;;;;;                                        ",
"          ;;;;;;;;;;;;;;                                        ",
"          ;;;;;;;;;;;;;;                                        ",
"          ;;;;;;;;==========                                    ",
"          ;;;;;;;;==========                                    ",
"                ====----==========    ;;;;;;;;                  ",
"                ====----==========    ;;;;;;;;                  ",
"                ==--@@>>============;;;;;;;;;;;;                ",
"                ==--@@>>============;;;;;;;;;;;;                ",
"                ==>>@@@@========;;;;;;;;;;;;;;;;;;              ",
"                ==>>@@@@========;;;;;;;;;;;;;;;;;;              ",
"                ====>>>>====;;;;;;;;;;;;;;;;;;;;;;              ",
"                ====>>>>====;;;;;;;;;;;;;;;;;;;;;;              ",
"                ========;;;;;;oooooo##;;;;;;;;;;                ",
"                ========;;;;;;oooooo##;;;;;;;;;;                ",
"                ======;;;;;;oo%%%%%%%%%%%%;;;;                  ",
"                ======;;;;;;oo%%%%%%%%%%%%;;;;                  ",
"                ;;;;;;;;%%%%%%%%%%%%%%%%%%%%%%                  ",
"                ;;;;;;;;%%%%%%%%%%%%%%%%%%%%%%                  ",
"              ;;;;;;;;%%%%%%%%%%%%;;%%;;%%%%%%%%                ",
"              ;;;;;;;;%%%%%%%%%%%%;;%%;;%%%%%%%%                ",
"            ;;;;;;;;##%%%%%%##%%%%;;##;;%%##%%%%                ",
"            ;;;;;;;;##%%%%%%##%%%%;;##;;%%##%%%%                ",
"          ;;;;;;;;##%%%%%%%%##%%%%%%oo%%%%oo%%%%                ",
"          ;;;;;;;;##%%%%%%%%##%%%%%%oo%%%%oo%%%%                ",
"          ;;;;;;;;%%%%%%%%%%&&oooooooooooooooo                  ",
"          ;;;;;;;;%%%%%%%%%%&&oooooooooooooooo                  ",
"          ;;%%%%%%%%%%::%%%%::::..::::..::oo                    ",
"          ;;%%%%%%%%%%::%%%%::::..::::..::oo                    ",
"          ;;%%%%%%%%%%::%%%%::::..::::..::##                    ",
"          ;;%%%%%%%%%%::%%%%::::..::::..::##                    ",
"              %%%%%%%%##%%%%::;;::::$$;;;;####                  ",
"              %%%%%%%%##%%%%::;;::::$$;;;;####                  ",
"                  %%%%##oo%%%%XXXXXXOO##########                ",
"                  %%%%##oo%%%%XXXXXXOO##########                ",
"                  %%%%##oo%%%%%%XXOOOO&&########                ",
"                  %%%%##oo%%%%%%XXOOOO&&########                ",
"              %%%%######::&&++XXOOOOOO&&&&                      ",
"              %%%%######::&&++XXOOOOOO&&&&                      ",
"                ####::::::++++**********&&::::                  ",
"                ####::::::++++**********&&::::                  ",
"                  ::::::++++**OO**********::::::                ",
"                  ::::::++++**OO**********::::::                ",
"                  ::::::++**OOOO****OOOO**::::::                ",
"                  ::::::++**OOOO****OOOO**::::::                ",
"                      XXXXOOOOOOOOOOOOOOOOOO                    ",
"                      XXXXOOOOOOOOOOOOOOOOOO                    ",
"                      XXXXOOOOOOOOOOOOOOOOOO                    ",
"                      XXXXOOOOOOOOOOOOOOOOOO                    ",
"                            ::::    &&                          ",
"                            ::::    &&                          ",
"                            ::::    &&                          ",
"                            ::::    &&                          ",
"                            %%%%%%  ####                        ",
"                            %%%%%%  ####                        ",
"                            %%%%%%%%######                      ",
"                            %%%%%%%%######                      "
};
