/* XPM */
static char *_070f541f8ef4b908eabb85f98c6effbMIqc0thaGwB6nUdY[] = {
/* columns rows colors chars-per-pixel */
"64 64 56 1 ",
"  c #0D2A33",
". c #152333",
"X c #113837",
"o c #3F217B",
"O c #973042",
"+ c #923B44",
"@ c #BD2B65",
"# c #472789",
"$ c #5A3F87",
"% c #5A3E89",
"& c #FC6189",
"* c #FE658B",
"= c #FE678E",
"- c #FB6B8E",
"; c #FD6A8E",
": c #FF6590",
"> c #FF6A90",
", c #FD6C91",
"< c #FE7294",
"1 c #FD7398",
"2 c #9460CF",
"3 c #AB9484",
"4 c #F6809A",
"5 c #F7819C",
"6 c #FE889F",
"7 c #FA8F9D",
"8 c #FC8C9C",
"9 c #FF80A2",
"0 c #FE87A0",
"q c #FE88A1",
"w c #FC8EA3",
"e c #FC88A4",
"r c #FF8EA4",
"t c #FF8DA8",
"y c #E490A9",
"u c #FE91A6",
"i c #FB94A7",
"p c #FB96AA",
"a c #FBA0B3",
"s c #FCA8B4",
"d c #FEACBC",
"f c #FCB4C2",
"g c #C18DEC",
"h c #FDCBD5",
"j c #FAE1CF",
"k c #F6E2D4",
"l c #F9E2D1",
"z c #FCE2D2",
"x c #F9E4D6",
"c c #FCE4D4",
"v c #F9E4D8",
"b c #F9EBFF",
"n c #FCECFF",
"m c #FFF1F1",
"M c snow",
"N c white",
/* pixels */
"          ....      ..        XX      XX      XX  XXXX    XX  XX",
"          ....      ..        XX      XX      XX  XXXX    XX  XX",
"  XX      XX                      @@@@                      XX  ",
"  XX      XX                      @@@@                      XX  ",
"  XXXX  33..                  ..@@00rr@@              XX    XX  ",
"  XXXX  33..                  ..@@00rr@@              XX    XX  ",
"    XX33vv33    ..          XX@@ppMM5511++  XX      XX  XX      ",
"    XX33vv33    ..          XX@@ppMM5511++  XX      XX  XX      ",
"XX    33xx33XXXX        @@    @@tt44>>::OO      ......          ",
"XX    33xx33XXXX        @@    @@tt44>>::OO      ......          ",
"  XX    33vv33    XX..@@dd@@    @@====@@  ......  XX            ",
"  XX    33vv33    XX..@@dd@@    @@====@@  ......  XX            ",
"      ..33ll33XX  XX    @@        @@@@  XX  XXXXXX              ",
"      ..33ll33XX  XX    @@        @@@@  XX  XXXXXX              ",
"..      33kk33  XXXX    ..  ..            XX@@                  ",
"..      33kk33  XXXX    ..  ..            XX@@                  ",
"..        33zz33      ..  ..  ..          @@ee@@            ....",
"..        33zz33      ..  ..  ..          @@ee@@            ....",
"      ....33cc33XX            ..        XX  @@XX  ..      ..    ",
"      ....33cc33XX            ..        XX  @@XX  ..      ..    ",
"      XXXX..33ll33      ....      XXXX  XX            XX        ",
"      XXXX..33ll33      ....      XXXX  XX            XX        ",
"          ############################################XX        ",
"          ############################################XX        ",
"..    ..oogggggggggggggggggg@@77NNuuwwmmhh688888@@2222oo    ..  ",
"..    ..oogggggggggggggggggg@@77NNuuwwmmhh688888@@2222oo    ..  ",
"....      oooooooooooooooooooo@@aa,,@@ffiiqq;;--@@oooo  XX    ..",
"....      oooooooooooooooooooo@@aa,,@@ffiiqq;;--@@oooo  XX    ..",
"        oooogggggggg22$$$$$$$$$$@@;;$$ss91<<==&&@@2222oo    ....",
"        oooogggggggg22$$$$$$$$$$@@;;$$ss99<<==&&@@2222oo    ....",
"        ooggggnngg22222222222222@@,,$$@@@@====&&@@2222oo        ",
"        ooggggnngg22222222222222@@,,$$@@@@====&&@@2222oo        ",
"  XXXX  ooggggbbgg22222222222222$$yy$$$$@@====&&@@2222oo    ..  ",
"  XXXX  ooggggbbgg22222222222222$$yy$$$$@@====&&@@2222oo    ..  ",
"      ooggggNN22222222222222222222@@$$22$$@@==&&@@222222oo      ",
"      ooggggNN22222222222222222222@@$$22$$@@==&&@@222222oo      ",
"  ..  ooggggNN22222222222222222222$$2222%%@@**&&@@222222oo..    ",
"  ..  ooggggNN22222222222222222222$$2222%%@@**&&@@222222oo..    ",
"XXXX  oogggg2222222222222222222222222222$$@@==@@$$222222oo  ..XX",
"XXXX  oogggg2222222222222222222222222222$$@@==@@$$222222oo  ..XX",
"  XX  oogggg2222222222222222222222222222$$@@==@@22222222oo      ",
"  XX  oogggg2222222222222222222222222222$$@@==@@22222222oo      ",
"....  oogggg2222222222222222222222222222$$@@==@@22222222oo      ",
"....  oogggg2222222222222222222222222222$$@@==@@22222222oo      ",
"        oogg2222222222222222222222222222$$@@==@@222222oo....    ",
"        oogg2222222222222222222222222222$$@@==@@222222oo....    ",
"        oogg222222222222222222222222222222$$@@$$222222oo..XXXX  ",
"        oogg222222222222222222222222222222$$@@$$222222oo..XXXX  ",
"        oogggg222222222222222222222222222222$$22222222oo        ",
"        oogggg222222222222222222222222222222$$22222222oo        ",
"XX      ..oogg22222222222222222222222222222222222222ooXX        ",
"XX      ..oogg22222222222222222222222222222222222222ooXX        ",
"            oogggg22222222222222222222222222222222oo    ..XX  XX",
"            oogggg22222222222222222222222222222222oo    ..XX  XX",
"  XX  XX    oooooogg22222222222222222222222222oooooo....XX  XX  ",
"  XX  XX    oooooogg22222222222222222222222222oooooo....XX  XX  ",
"          33zzzzzzoooo$$2222222222222222oooooozzzzzz33....XX    ",
"          33zzzzzzoooo$$2222222222222222oooooozzzzzz33....XX    ",
"        33jjzz3333    oooooooooooooooooooo    3333zzll33..  XX  ",
"        33jjzz3333    oooooooooooooooooooo    3333zzll33..  XX  ",
"          3333XX                        XXXX      3333        ..",
"          3333XX                        XXXX      3333        ..",
"XX  XXXX            ....    XXXX          XX      XX    XX      ",
"XX  XXXX            ....    XXXX          XX      XX    XX      "
};
