/* XPM */
static char *_b224fd5aaa3476ac9c8b45d1dbaae6ev1YRWTdQ4saE8HVF[] = {
/* columns rows colors chars-per-pixel */
"64 64 72 1 ",
"  c None",
". c #811C3D",
"X c #B42E65",
"o c #AD3A68",
"O c #B23165",
"+ c #914298",
"@ c #A848B1",
"# c #A948B1",
"$ c #AA48B2",
"% c #AE4DB7",
"& c #D64588",
"* c #E5488F",
"= c #E24D8E",
"- c #EA4B8E",
"; c #E2528E",
": c #E84793",
"> c #E64B91",
", c #E64D91",
"< c #E54D93",
"1 c #E74D93",
"2 c #E64F93",
"3 c #E74F93",
"4 c #E64B95",
"5 c #E64D97",
"6 c #EA4B91",
"7 c #EA4D91",
"8 c #E84F93",
"9 c #EA4F93",
"0 c #E84D94",
"q c #F54F96",
"w c #E65193",
"e c #E65293",
"r c #E35493",
"t c #E65492",
"y c #E75194",
"u c #E95193",
"i c #ED5193",
"p c #ED5295",
"a c #E65198",
"s c #EA5598",
"d c #F55799",
"f c #F55899",
"g c #FB5899",
"h c #F98EBC",
"j c #F98EBE",
"k c #F990C0",
"l c #FFA1D0",
"z c #FFA0D2",
"x c #FBAED2",
"c c #FFB7DF",
"v c #DDBFF1",
"b c #DEBFF1",
"n c #FFBCE4",
"m c #FFC7EC",
"M c #FFCCEA",
"N c #FFCBED",
"B c #FFC9EE",
"V c #FFC8EF",
"C c #FFCAEE",
"Z c #FFCAEF",
"A c #FFCBEF",
"S c #FFCCEE",
"D c #FFCCEF",
"F c #FFC7F1",
"G c #FFCBF0",
"H c #FFCAF1",
"J c #FFCCF0",
"K c #FFCEF1",
"L c #FFCFF4",
"P c #FFCEFA",
"I c #FEFFFF",
"U c white",
/* pixels */
"                                                                ",
"                                                                ",
"                                                                ",
"                                                                ",
"                                                                ",
"                                                                ",
"                                                                ",
"                                                                ",
"                                                                ",
"                                                                ",
"                                                                ",
"                                                                ",
"                                                                ",
"                                                                ",
"                                                                ",
"                                                                ",
"                                                                ",
"                                                                ",
"                                                                ",
"                                                                ",
"                            ..........                          ",
"                            ..........                          ",
"                          ..ffffffddgg..                        ",
"                          ..ffffffddgg..                        ",
"                        ....22kkhhhh22..                        ",
"                        ....22kkhhhh22..                        ",
"                      ....22uuZZGGZZ77ee..                      ",
"                      ....22uuZZGGZZ77ee..                      ",
"                    ..&&;;**22GGKKKK77>>::....                  ",
"                    ..&&;;**22GGKKKK77>>::....                  ",
"                    ..xxMMLLiiyy44tt--ZZaa....                  ",
"                    ..xxMMLLiiyy44tt--ZZaa....                  ",
"                  ..PPFFSSZZSS662222ss7722qqOO..                ",
"                  ..PPFFSSZZSS662222ss7722qqOO..                ",
"                  ..KKSSZZZZmmrr222222227777oo..                ",
"                  ..KKSSZZZZmmrr222222227777oo..                ",
"                  ..zznnZZSSzzee222222227777oo..                ",
"                  ..zznnZZSSzzee222222227777oo..                ",
"                  ..ppccZZGG55552222==002222XX..                ",
"                  ..ppccZZGG55552222==002222XX..                ",
"                    ......++########%%++......                  ",
"                    ......++########%%++......                  ",
"                          ++vvvvUUUUUU++                        ",
"                          ++vvvvUUUUUU++                        ",
"                          ++vvvvUUUUUU++                        ",
"                          ++vvvvUUUUUU++                        ",
"                          ++vvvvUUUUUU++                        ",
"                          ++vvvvUUUUUU++                        ",
"                            ++++++++++                          ",
"                            ++++++++++                          ",
"                                                                ",
"                                                                ",
"                                                                ",
"                                                                ",
"                                                                ",
"                                                                ",
"                                                                ",
"                                                                ",
"                                                                ",
"                                                                ",
"                                                                ",
"                                                                ",
"                                                                ",
"                                                                "
};
