/* XPM */
static char *_428e4ecb1f84bc6cacca0a753d42776tfBDQezEJkjfMFWA[] = {
/* columns rows colors chars-per-pixel */
"64 64 36 1 ",
"  c #0D2A33",
". c #152333",
"X c #113837",
"o c #4E291B",
"O c #541D57",
"+ c #811C3D",
"@ c #9E1460",
"# c #A21565",
"$ c #AC176D",
"% c #B21872",
"& c #C41666",
"* c #C31E6B",
"= c #C61F6F",
"- c #D2247D",
"; c #E3A852",
": c #FCFC67",
"> c #6630DA",
", c #6C33E1",
"< c #6F50D2",
"1 c #7857DC",
"2 c #7A59DF",
"3 c #E76184",
"4 c #805DE5",
"5 c #EF9497",
"6 c #D08FB7",
"7 c #FF9DB6",
"8 c #C9A2B1",
"9 c #FABBBE",
"0 c #C79AD7",
"q c #D194F5",
"w c #DEC1DA",
"e c #FFE1D1",
"r c #FFE4D5",
"t c #E8E2E6",
"y c #E8E1EE",
"u c #F7E7EF",
/* pixels */
"          ....      ..        XX      XX      XX  XXXX    XX  XX",
"          ....      ..        XX      XX      XX  XXXX    XX  XX",
"  XX      XX                                                XX  ",
"  XX      XX                                                XX  ",
"  XXXX  ....                  ....  XX..              XX    XX  ",
"  XXXX  ....                  ....  XX..              XX    XX  ",
"    XX          ..          XX  XX          XX      XX  XX      ",
"    XX          ..          X**uuuuu*       XX      XX  XX      ",
"XX      ..XXXXXX        XX @***uuuuu***         ......          ",
"XX      ..XXXXXX        X@@@***uuuuu**u**       ......          ",
"  XX    ..        XX..  @@@*****uuu******u......  XX            ",
"  XX    ..        XX.. @@@*************uuuu.....  XX            ",
"      ......XXXX  XX  @@@*************uuuuuuXXXXXX              ",
"      ......XXXX  XX 0@@****uu********uuuuuuuXXXXX              ",
"..      ..      XXXX 00@****uu********uuuuuuu                   ",
"..      ..      XXXX000@**************uuuuuuuu                  ",
"..          XX      000u**********u***uuuuuuuu              ....",
"..          XX     000uu*********uuu**uuuuuuuuu             ....",
"      ....    XXXX 00uuu*********uuu**uuuuuuuuuX  ..      ..    ",
"      ....    XXXX000uu***uuuu****u***uuuuuuuuuu  ..      ..    ",
"      XXXX..     000uuu**uuuuuu********uuuuuuuuuu     XX        ",
"      XXXX..    @00uu***uuuuuuuu********uuuuuuuuu*    XX        ",
"               @@*******uuuuuuuu*********uuuuuuu*** XXXX        ",
"              @@@*******uuuuuuuu********************XXXX        ",
"..    ....   @@@@********uuuuuu******u***************.XX    ..  ",
"..    .... 00@@@@*********uuuu************************XX    ..  ",
"....    000000@***************************************  XX    ..",
"....   00000000***uuu*********@@@@@@@@******u*****uuu***XX    ..",
"       00000000***uuu****u@@@@@@@@@@@@@@@@*uuu***uuuuu***   ....",
"      000000000***uuu***@@@@@@wwwwww@@@@@@**u****uuuuu**uu  ....",
"     00000000uu*******@@@@@wwwwwwwyywww@@@@@@@***uuuuu***uu     ",
"    @0000000uuu****@@@@@wwyy66wwwwyy66wwww@@@@****uuu******     ",
"  XX@00000000uu**@@@@@@wwwyy66wwwwyy66wwwww@@@@************ ..  ",
"  XX@000000000@@@@@wwwwww6665666666666666wwy6ww@@@@@@@***** ..  ",
"    @@000000@@@@@O6www6ww6669666666669666wwy6www@@@@@@@@**@     ",
"    @@@0000@@@OOOO6www6ww699roo9999oorr96wwy6wwwOO@@@@@@@@@     ",
"  ..@@@@@@@OOOOOOO6ww96ww699roorrrroorr96wwy9wwwOOOOO@@@@@@.    ",
"  ..@@@@@@OOOOOOOO6ww96ww6977oorrrroo7796wwy9wwwOOOOOO@@@@..    ",
"XXXX @@@@OOOOOOOOO6wwr6ww6977oorrrroo7796wwyrwwwOOOOOOO@@@  ..XX",
"XXXX  @@@OOOOOOOOO66wr6ww699rrr++++rrrr96wwyrwwwOOOOOOO@@   ..XX",
"  XX    @@OOOOOOOO66ww6ww699rrr++++rrrr96wwy6wwwOOOOOO@@..      ",
"  XX     @@@@@@@@@66ww6ww699rrr3333rrrr96wwy6www@@@@@@@X..      ",
"....      XXXX    666w666699rrr3333rrrr966666www    ....        ",
"....      wwXX   66666666$$44qq%@@#44qq@@66666www   ..ww        ",
"          ww..   66666666$$44qq%@@#44qq@@666666ww.    ww....    ",
"          wwwwwww666666$$$$44qq-**=44qq@@@@6666wwwwwwwww....    ",
"          wwwwww6666666$$$$44qq-**=44qq$$@@66666wwwwwwww..XXXX  ",
"           6666666666$$$$>,;;::2<<1;;::44$$@@6666wwwwww ..XXXX  ",
"        XX 6666666666$$$$,,;;::4444;;::44$$$$6666666666X        ",
"        XX  X66666666$$$$,,,,4444444444qq$$$$66666666 XX        ",
"XX      ..   66666666ee5,,,,,4444444444qqq5ee66666666.XX        ",
"XX      ..    ..   ee55,,,,44444444qqqqqqqq55ee   XX..XX        ",
"                   ee55,,,,44444444qqqqqqqq55ee   ..    ..XX  XX",
"                   5555,,,,444444qqqqqqqqqq5555   ..    ..XX  XX",
"  XX  XX             ,,,,,,444444qqqqqqqqqqqqqq...  ....XX  XX  ",
"  XX  XX             ,,,,,,,,,,,,,,44444444qqqq...  ....XX  XX  ",
"            ..       ,,,,,,,,,,,,,,,,,,,,,,4444   ..  ....XX    ",
"            ..          XX 55eeX   55ee.          ..  ....XX    ",
"                XX        X88tt    88tt         XX  XX  ..  XX  ",
"                XX        X88tt    88tt         XX  XX  ..  XX  ",
"          ..  XX           &&&&    &&&& XXXX      XX..        ..",
"          ..  XX           &&&&    &&&& XXXX      XX..        ..",
"XX  XXXX            ....   @@@@X   @@@@   XX      XX    XX      ",
"XX  XXXX            ....   @@@@X   @@@@   XX      XX    XX      "
};
