/* XPM */
static char *_d19acd2afe44660e557c8819f44f1f9FczAwTHovmtFmXd8[] = {
/* columns rows colors chars-per-pixel */
"64 64 3 1 ",
"  c #0D2A33",
". c #152333",
"X c #113837",
/* pixels */
"          ....      ..        XX      XX      XX  XXXX    XX  XX",
"          ....      ..        XX      XX      XX  XXXX    XX  XX",
"  XX      XX                                                XX  ",
"  XX      XX                                                XX  ",
"  XXXX  ....                  ....  XX..              XX    XX  ",
"  XXXX  ....                  ....  XX..              XX    XX  ",
"    XX          ..          XX  XX          XX      XX  XX      ",
"    XX          ..          XX  XX          XX      XX  XX      ",
"XX      ..XXXXXX        XX                      ......          ",
"XX      ..XXXXXX        XX                      ......          ",
"  XX    ..        XX..          ..        ......  XX            ",
"  XX    ..        XX..          ..        ......  XX            ",
"      ......XXXX  XX    XX        XXXX  XX  XXXXXX              ",
"      ......XXXX  XX    XX        XXXX  XX  XXXXXX              ",
"..      ..      XXXX    ..  ..            XX                    ",
"..      ..      XXXX    ..  ..            XX                    ",
"..          XX        ..  ..  ..          XX                ....",
"..          XX        ..  ..  ..          XX                ....",
"      ....    XXXX            ..        XX  ..XX  ..      ..    ",
"      ....    XXXX            ..        XX  ..XX  ..      ..    ",
"      XXXX..            ....      XXXX  XX            XX        ",
"      XXXX..            ....      XXXX  XX            XX        ",
"                    ..    ......        XX          XXXX        ",
"                    ..    ......        XX          XXXX        ",
"..    ....    XX  ....XXXXXX  XX      ..  ..  ..    ..XX    ..  ",
"..    ....    XX  ....XXXXXX  XX      ..  ..  ..    ..XX    ..  ",
"....      ..XXXX    XXXX      XXXX..      XXXX  ..  ..  XX    ..",
"....      ..XXXX    XXXX      XXXX..      XXXX  ..  ..  XX    ..",
"        XX    XX  ..    XX  ..    XX                ..      ....",
"        XX    XX  ..    XX  ..    XX                ..      ....",
"                ..                    ..  XX  ..                ",
"                ..                    ..  XX  ..                ",
"  XXXX            ..XXXX                                    ..  ",
"  XXXX            ..XXXX                                    ..  ",
"      XX..    XX                                                ",
"      XX..    XX                                                ",
"  ..    XXXXXX  XXXXXX    ..      XXXXXX    ..          ....    ",
"  ..    XXXXXX  XXXXXX    ..      XXXXXX    ..          ....    ",
"XXXX                    ..          XX      ..XX            ..XX",
"XXXX                    ..          XX      ..XX            ..XX",
"  XX              ..  ..XXXX  XX    XX              XXXX..      ",
"  XX              ..  ..XXXX  XX    XX              XXXX..      ",
"....      XXXX          ....XXXX  XXXXXX..    ..    ....        ",
"....      XXXX          ....XXXX  XXXXXX..    ..    ....        ",
"            ..        XX    XX    XX    XX      ..    XX....    ",
"            ..        XX    XX    XX    XX      ..    XX....    ",
"            ......              ..                XXXX  ..XXXX  ",
"            ......              ..                XXXX  ..XXXX  ",
"        XX  XXXXXX..  XX      XXXX      ..            XX        ",
"        XX  XXXXXX..  XX      XXXX      ..            XX        ",
"XX      ..    ..    ..      XXXX                  XX..XX        ",
"XX      ..    ..    ..      XXXX                  XX..XX        ",
"                        XX  ......XX              ..    ..XX  XX",
"                        XX  ......XX              ..    ..XX  XX",
"  XX  XX                  ..    ....          ....  ....XX  XX  ",
"  XX  XX                  ..    ....          ....  ....XX  XX  ",
"            ..          XX    XX      ..          ..  ....XX    ",
"            ..          XX    XX      ..          ..  ....XX    ",
"                XX        XXXX                  XX  XX  ..  XX  ",
"                XX        XXXX                  XX  XX  ..  XX  ",
"          ..  XX                        XXXX      XX..        ..",
"          ..  XX                        XXXX      XX..        ..",
"XX  XXXX            ....    XXXX          XX      XX    XX      ",
"XX  XXXX            ....    XXXX          XX      XX    XX      "
};
