/* XPM */
static char *_187de3212074dccbf1cf221a36a15e7MmdJ8a94CfVd5XQR[] = {
/* columns rows colors chars-per-pixel */
"64 64 93 2 ",
"   c #0D2A33",
".  c #152333",
"X  c #113837",
"o  c #4D271A",
"O  c #4E281B",
"+  c #4E281D",
"@  c #551B56",
"#  c #531D57",
"$  c #541D57",
"%  c #541C59",
"&  c #831B3C",
"*  c #811C3C",
"=  c #9F0E5B",
"-  c #9E0F5E",
";  c #9D135E",
":  c #9E145F",
">  c #A00F5C",
",  c #9D1360",
"<  c #9E1461",
"1  c #A01361",
"2  c #A21564",
"3  c #AF1972",
"4  c #B21772",
"5  c #B11873",
"6  c #BB197C",
"7  c #C31666",
"8  c #C51566",
"9  c #C31E6B",
"0  c #C41D6B",
"q  c #C31E6D",
"w  c #C41F6C",
"e  c #C11B7F",
"r  c #E1A851",
"t  c #FBFC63",
"y  c #FCFC66",
"u  c #6B33DF",
"i  c #6C32DF",
"p  c #6A35DF",
"a  c #6C34DF",
"s  c #6C33E2",
"d  c #6C34E0",
"f  c #7F5EE3",
"g  c #7F5DE5",
"h  c #E76184",
"j  c #805EE6",
"k  c #805EE8",
"l  c #EF9396",
"z  c #EF9597",
"x  c #F09497",
"c  c #F09698",
"v  c #CF8EB6",
"b  c #CF8EB8",
"n  c #D18FB3",
"m  c #D08FB7",
"M  c #D08FB9",
"N  c #CE90B7",
"B  c #CF91BA",
"V  c #D090B5",
"C  c #D190B8",
"Z  c #FF9DB6",
"A  c #C8A2B1",
"S  c #F9BBBE",
"D  c #F8BCBE",
"F  c #C799D7",
"G  c #C999D7",
"H  c #C799D9",
"J  c #C89AD8",
"K  c #F9BBC0",
"L  c #CF93F3",
"P  c #D092F3",
"I  c #D194F3",
"U  c #D193F4",
"Y  c #D294F5",
"T  c #DEC2DB",
"R  c #DFC3DC",
"E  c #E0C2DC",
"W  c #FEE1CF",
"Q  c #FEE1D1",
"!  c #FFE3D5",
"~  c #E8E2E6",
"^  c #E7E1ED",
"/  c #E8E1E8",
"(  c #E8E2EE",
")  c #F7E6EC",
"_  c #F8E7EF",
"`  c #F7E8EF",
"'  c #F8E9EE",
"]  c #E6E2F0",
"[  c #E8E2F0",
"{  c #F7E7F1",
"}  c #F8E7F1",
"|  c #F5E8F1",
" . c #F8E9F0",
/* pixels */
"                    . . . .             . .                 X X             X X             X X     X X X X         X X     X X ",
"                    . . . .             . .                 X X             X X             X X     X X X X         X X     X X ",
"    X X             X X                                                                                                 X X     ",
"    X X             X X                                                                                                 X X     ",
"    X X X X     . . . .                                     . . . .     X X . .                             X X         X X     ",
"    X X X X     . . . .                               < F F ` ` 0 9 9 9 9 9 . .                             X X         X X     ",
"        X X                     . .                   < < F ` 9 9 9 9 ` 9 9             X X             X X     X X             ",
"        X X                     . .               < < < < q q 9 9 0 9 9 9 q 9 9 0 9     X X             X X     X X             ",
"X X             . . X X X X X X                 < ` < < 9 9 9 9 9 9 9 9 w w 9 9 9 9             . . . . . .                     ",
"X X             . . X X X X X X               J < ; 9 9 9 9 9 9 9 9 9 9 9 9 9 9 9 0 ' `         . . . . . .                     ",
"    X X         . .                 X X . .   F < < 9 ` ` 9 9 9 9 9 9 9 9 9 9 9 9 ` ` { . . . .     X X                         ",
"    X X         . .                 X X . . F ` 9 9 9 ` ` 9 9 9 9 9 9 9 9 9 9 9 9 ` ` ` ` ` . .     X X                         ",
"            . . . . . . X X X X     X X F H F ` 9 9 9 9 9 9 9 9 w ` 9 0 9 9 9 9 ` ` } ` ` ` X X X X                             ",
"            . . . . . . X X X X     X X F F ` ` 9 9 9 9 9 9 9 9 ` ` ` 9 q 9 0 ` ` ` ` ` ` ` ` ` X X                             ",
". .             . .             X X X F F F ` ` 9 9 0 9 9 9 9 w `  .` 9 9 9 9 ` ` ` ` ` ` ` ` `                                 ",
". .             . .             X X X F F F ` q 9 q ` ` ` 9 9 9 0 ` 9 9 9 9 9 ` ) ` ` ` _ ` ` ` `                               ",
". .                     X X         J F F _ 0 9 9 { ` ` ` ` 9 9 q 9 9 9 9 9 9 ` `  ._ ` ` ` ` ` `                       . . . . ",
". .                     X X         F F ` 9 w 9 ` ` ` ` ` ` ` w 9 q 9 9 9 9 9 ` ` `  .` ` ` _ ` `                       . . . . ",
"            . . . .         X X X < < 1 9 9 9 9 ` ` ` _ ` ` ` 9 9 9 w 9 9 9 9 9 9 ` ` ` ` ` ` ` `   . .             . .         ",
"            . . . .         X X < < < 9 9 9 9 9 ` ` ` ` ` ` ` 0 9 9 9 9 9 w 9 w 9 ` ` ` ` ` ` ` `  .. .             . .         ",
"            X X X X . .       < < < 9 9 9 9 9 9 0 ` ` ` ` ` 9 9 q 0 9 9 9 9 9 9 9 0 _ ` ` ` ` ` ` `         X X                 ",
"            X X X X . .     < < , < 9 w 9 9 9 0 9 9 ` ` ` 9 9 q 9 9 9 ` 9 9 9 9 9 9 9 { ` ` ` ) ` ` `       X X                 ",
"                          < < F F < 9 9 9 q 9 9 w w 9 9 9 q 9 9 9 9 9 0 9 w 9 9 9 9 9 9 q ` ` ` ` 9 9   X X X X                 ",
"                F F F F F < < J J 9 9 9 9 9 9 9 9 9 9 9 9 9 w 9 q 9 9 9 9 q 9 9 9 9 9 9 9 q 9 9 9 9 9   X X X X                 ",
". .         . . F F F F F < < < < 9 9 ` 9 9 < < < < < 1 < 1 < < 9 9 9 9 9 9 9 9 9 9 0 9 9 9 9 9 9 9 0   . . X X         . .     ",
". .         F F F F F F F < < < < < 9 9 9 q m m M M N m m m m m 9 9 9 9 9 9 9 q 0 ` 9 q 0 0 9 0 9 9 9 9 . . X X         . .     ",
". . . .     F F F F J H F < < < < < < < < < m m m m m m m C M m < < < < 0 w 9 q ` `  .9 9 q q 9 9 ` ` ` . .     X X         . . ",
". . . . F F F F F J F F < < < < < < m m m V T T T E T T T T V m C m m v 9 9 9 9 9 ` 9 9 9 9 w 9 ` ` ` ` ` .     X X         . . ",
"        G F H F F F F < < < < < < < N m m m T T T R T T T T T T m m m m < , < < 9 0 9 9 9 9 9 9 ` ` ` ` ' 9 9 9         . . . . ",
"        F F F F F < < < < $ $ $ m V m m m T T T T T m m T T T T T T T T m m m B 9 w 9 9 9 9 0 9 ` ` ` ` ` 9 9 9         . . . . ",
"        = ; F < < < $ $ $ $ $ $ m m m C m T T T T T m v R T T T T T R T T m m m < < < < < 9 9 9 9 ` | ` 9 0 9 { 9 9             ",
"            < < $ $ % $ % $ $ % m m m v m T T T T T m m T T T T T T ( ( T T T T m C C m < < 1 9 9 9 q 9 9 9 0 9 9 w             ",
"    X X X X > - $ @ $ $ $ $ $ % N m m m v T T T T T m m T R T T T T ( ( T T T T m m V m < < < < w 9 9 9 9 9 w 9 9 9 9   . .     ",
"    X X X X     < < $ $ $ $ $ $ C m m m m m m m m m m m m m m C m m S S M m T T T T ( ( m m < < 9 9 9 w ` ` 9 9 w 9 9   . .     ",
"            X X , < % $ $ $ $ $ V m m m m m V N m m m m m m v m v m S S m m R T R T ( ( m m < < < < 9 _ ` ` ` w 9 9 9           ",
"            X X . . , $ # $ % # $ % m m m m S S O O S S S S o O Q Q Q Q m m T T T T T T ( ( $ $ 1 < < < ` ` w 9 9 0             ",
"    . .         X X < 1 < < $ # $ $ v m N m S S + O S S S S O O Q Q Q Q m m T T T T T T ( ( $ $ $ # : < , < < 9 9 9 . .         ",
"    . .         X X X X X X , $ % % % $ m m Z Z O O Q Q Q Q O O Z Z Q Q m m T T c l T T ^ ( $ # $ $ # < , < < , : . . .         ",
"X X X X                     < < < < < 1 V m Z Z O O Q Q Q Q O O Z Z Q Q m m T T z z T T ( ( % $ $ $ $ $ < < < < ,       . . X X ",
"X X X X                                 m m S S S S & * * * Q Q Q Q Q Q m m T T Q Q T T ( ( $ $ $ $ $ $ < < < <         . . X X ",
"    X X                             . . m v S S S S * * * * Q Q Q Q W Q M m T T ! Q R T ^ ( < < < < 1 : < 1 < X . .             ",
"    X X                             m v m m S S S D h h h h Q Q Q Q Q Q m m T T m m T T ( ]             X X X X . .             ",
". . . .             X X X X         m m m m S S K S h h h h Q Q Q Q Q Q m m T T V m T T ( ( . .         . . . .                 ",
". . . .             X X m m     m m m m m m < < g g U U 2 < < 4 g g U U 6 1 m m m m T T ( ( . .         ( ( . .                 ",
"                        m m     N m m m V N , < g g U U 2 < 1 4 g g U U e 2 m C m m T T ( (     . .     ( [ X X . . . .         ",
"                        m m m M m m m N < < < < g g U P 9 9 9 0 g g Y Y g g < < m m T R T ( ( ( ( ( ( ( T T X X . . . .         ",
"                        m m V m m m m m < < 9 9 g g U U 9 9 9 9 g g U U j k < < m m T R T T ( ( ( ( ^ ( T R     . . X X X X     ",
"                        . . m m m m m m 9 9 p s y y r r g g g g y y r r g g < < < < m m T T T T R T T T X X     . . X X X X     ",
"                X X     X X m v m n m m 9 0 d d y y r r g g g g t y r r g g 5 5 5 3 M m m M T T T T T T     X X                 ",
"                X X     X X X X m m z x d d d d a d d d j g g g g j g g U U U U z z z z m m m m T T         X X                 ",
"X X             . .         . . m V z z d d d a s d d d g g g g g g g g U U I U z z x x m m m m b m X X . . X X                 ",
"X X             . .         . . z z z z s u d d d d g g g g g g g g g g U U U U z z z z z z         X X . . X X                 ",
"                                z z x z d d d d d d g g g g g g g g g g U U U U z z x z z z         . .         . . X X     X X ",
"                                        d d d d d d g g g f g g g g g g g f U Y U U                 . .         . . X X     X X ",
"    X X     X X                         a d d d d d g g j j g g g g f f g g U U L U         . . . .     . . . . X X     X X     ",
"    X X     X X                         d d u d s d d d s d s d d d d d d d g g U U         . . . .     . . . . X X     X X     ",
"                        . .             i d d d s d d d d d d d d d d d d d g g U U                 . .     . . . . X X         ",
"                        . .                     z z Q W     X X z z Q W     . .                     . .     . . . . X X         ",
"                                X X             A A / ~ X X     A A ~ ~                         X X     X X     . .     X X     ",
"                                X X             A A ~ ~ X X     A A ~ ~                         X X     X X     . .     X X     ",
"                    . .     X X             < < < < 7 8     < < < < 8 7         X X X X             X X . .                 . . ",
"                    . .     X X             < < < , 7 7     < < < < 7 7         X X X X             X X . .                 . . ",
"X X     X X X X                         < < < < 7 7 7 7 < < < < 7 8 7 7             X X             X X         X X             ",
"X X     X X X X                         < < < < 7 7 7 7 < < < < 7 7 7 7             X X             X X         X X             "
};
