/* XPM */
static char *c574637587424bb2e4f3a4716514a3behOQZWP4EJiVblL8w[] = {
/* columns rows colors chars-per-pixel */
"64 64 92 1 ",
"  c #0D2A33",
". c #152333",
"X c #113837",
"o c #4D271A",
"O c #4E281B",
"+ c #4E281D",
"@ c #551B56",
"# c #531C56",
"$ c #541D57",
"% c #551E58",
"& c #831B3C",
"* c #811C3C",
"= c #9F0E5B",
"- c #9E0F5E",
"; c #9D135E",
": c #9E145F",
"> c #A00F5C",
", c #9D1360",
"< c #9E1461",
"1 c #A01361",
"2 c #A21564",
"3 c #AF1972",
"4 c #B21772",
"5 c #B11873",
"6 c #BB197C",
"7 c #C31666",
"8 c #C51566",
"9 c #C31E6B",
"0 c #C41D6B",
"q c #C31E6D",
"w c #C41F6C",
"e c #C11B7F",
"r c #E1A851",
"t c #FBFC63",
"y c #FCFC66",
"u c #6B33DF",
"i c #6C32DF",
"p c #6A35DF",
"a c #6C34DF",
"s c #6C33E2",
"d c #6C34E0",
"f c #7F5EE3",
"g c #7F5DE5",
"h c #E76184",
"j c #805EE6",
"k c #805EE8",
"l c #EF9396",
"z c #EF9597",
"x c #F09497",
"c c #F09698",
"v c #CF8EB6",
"b c #CF8EB8",
"n c #D18FB3",
"m c #D08FB7",
"M c #D08FB9",
"N c #CE90B7",
"B c #D090B5",
"V c #D190B8",
"C c #FF9DB6",
"Z c #C8A2B1",
"A c #F9BBBE",
"S c #F8BCBE",
"D c #C698D6",
"F c #C999D7",
"G c #C799D9",
"H c #C89AD8",
"J c #F9BBC0",
"K c #CF93F3",
"L c #D092F3",
"P c #D194F3",
"I c #D193F4",
"U c #D294F5",
"Y c #DEC2DB",
"T c #DFC3DC",
"R c #E0C2DC",
"E c #FEE1CF",
"W c #FEE1D1",
"Q c #FFE3D5",
"! c #E8E2E6",
"~ c #E7E1ED",
"^ c #E8E1E8",
"/ c #E8E2EE",
"( c #F6E7EE",
") c #F8E7EF",
"_ c #F7E8EF",
"` c #F8E9EE",
"' c #E6E2F0",
"] c #E8E2F0",
"[ c #F7E7F1",
"{ c #F8E7F1",
"} c #F5E8F1",
"| c #F8E9F0",
/* pixels */
"          ....      ..        XX      XX      XX  XXXX    XX  XX",
"          ....      ..        XX      XX      XX  XXXX    XX  XX",
"  XX      XX                                                XX  ",
"  XX      XX                                                XX  ",
"  XXXX  ....                  ....  XX..              XX    XX  ",
"  XXXX  ....                  ....  XX..              XX    XX  ",
"    XX          ..         <DD__099999      XX      XX  XX      ",
"    XX          ..         <<D_9999_99      XX      XX  XX      ",
"XX      ..XXXXXX        X<<<<qq990999q9909      ......          ",
"XX      ..XXXXXX        <_<<99999999ww9999      ......          ",
"  XX    ..        XX.. H<;9999999999999990`_....  XX            ",
"  XX    ..        XX.. D<<9__999999999999__[....  XX            ",
"      ......XXXX  XX  D_999__999999999999_____XXXX              ",
"      ......XXXX  XXDGD_99999999w_909999__{___XXXX              ",
"..      ..      XXXXDD__99999999___9q90_________                ",
"..      ..      XXXDDD__9909999w_|_9999_________                ",
"..          XX     DDD_q9q___9990_99999_(___)____           ....",
"..          XX    HDD)099[____99q999999__|)______           ....",
"      ....    XXXXDD_9w9_______w9q99999___|___)__ ..      ..    ",
"      ....    XXX<<19999___)___999w999999________ ..      ..    ",
"      XXXX..    <<<99999_______099999w9w9________|    XX        ",
"      XXXX..   <<<9999990_____99q099999990)_______    XX        ",
"              <<,<9w999099___99q999_9999999[___(___ XXXX        ",
"             <<DD<999q99ww999q9999909w999999q____99 XXXX        ",
"..    ..DDDDD<<HH9999999999999w9q9999q9999999q99999 ..XX    ..  ",
"..    ..DDDDD<<<<99_99<<<<<1<1<<9999999999099999990 ..XX    ..  ",
"....  DDDDDDD<<<<<999qmmmmmmmVMm9999999q0_9q00909999..  XX    ..",
"....  DDDDHGD<<<<<<<<<YYYRYYYYBm<<<<0w9q__|99qq99___..  XX    ..",
"    DDDDDHDD<<<<<<NmmmYYYTYYYYYYmmmm99999_9999w9_____.      ....",
"    FDGDDDD<<<<<<<mmmYYYYYmmYYYYYYYY<,<<90999999____`999    ....",
"    DDDDD<<<<$$$mmmVmYYYYYmvTYYYYYTYYmmm9w999909_____999        ",
"    =;D<<<$$$$$$mmmvmYYYYYmmYYYYYY//YYYY<<<<<9999_}_909[99      ",
"  XXXX<<$$%$%$$%NmmmvYYYYYmmYTYYYY//YYYYmmBm<<1999q999099w  ..  ",
"  XXXX>-$@$$$$$%VmmmmmmmmmmmmmmVmmAAMmYYYY//<<<<w99999w9999 ..  ",
"      XX<<$$$$$$BmmmmmBNmmmmmmvmvmAAmmTYTY//mm<<999w__99w99     ",
"      XX,<%$$$$$%%mmmmAAOOAAAAoOWWWWmmYYYYYY//<<<<9)___w999     ",
"  ..    XX,$#$%#$%vmNmAA+OAAAAOOWWWWmmYYYYYY//$$1<<<__w990..    ",
"  ..    XX<1<<$#$$%%mmCCOOWWWWOOCCWWmmYYclYY~/$$$#:<,<<999..    ",
"XXXX          ,$%%%$BmCCOOWWWWOOCCWWmmYYzzYY//$#$$#<,<<,:   ..XX",
"XXXX          <<<<<1mmAAAA&***WWWWWWmmYYWWYY//%$$$$$<<<<,   ..XX",
"  XX              ..mvAAAA****WWWWEWMmYYQWTY~/$$$$$$<<<<..      ",
"  XX              mvmmAAAShhhhWWWWWWmmYYmmYY/'<<<<1:<1<X..      ",
"....      XXXX    mmmmAAJAhhhhWWWWWWmmYYBmYY//..    ....        ",
"....      XXmm  mmmmmm<<ggII2<<4ggII61mmmmYY//..    //..        ",
"            mm  NmmmBN,<ggII2<14ggIIe2mVmmYY//  ..  /]XX....    ",
"            mmmMmmmN<<<<ggIL9990ggUUgg<<mmYTY///////YYXX....    ",
"            mmBmmmmm<<99ggII9999ggIIjk<<mmYTYY////~/YT  ..XXXX  ",
"            ..mmmmmm99psyyrrggggyyrrgg<<<<mmYYYYTYYYXX  ..XXXX  ",
"        XX  XXmvmnmm90ddyyrrggggtyrrgg5553MmmMYYYYYY  XX        ",
"        XX  XXXXmmzxddddadddjggggjggIIIIzzzzmmmmYY    XX        ",
"XX      ..    ..mBzzdddasdddggggggggIIPIzzxxmmmmbmXX..XX        ",
"XX      ..    ..zzzzsuddddggggggggggIIIIzzzzzz    XX..XX        ",
"                zzxzddddddggggggggggIIIIzzxzzz    ..    ..XX  XX",
"                    ddddddgggfgggggggfIUII        ..    ..XX  XX",
"  XX  XX            adddddggjjggggffggIIKI    ....  ....XX  XX  ",
"  XX  XX            ddudsdddsdsdddddddggII    ....  ....XX  XX  ",
"            ..      idddsdddddddddddddggII        ..  ....XX    ",
"            ..          zzWE  XXzzWE  ..          ..  ....XX    ",
"                XX      ZZ^!XX  ZZ!!            XX  XX  ..  XX  ",
"                XX      ZZ!!XX  ZZ!!            XX  XX  ..  XX  ",
"          ..  XX      <<<<78  <<<<87    XXXX      XX..        ..",
"          ..  XX      <<<,77  <<<<77    XXXX      XX..        ..",
"XX  XXXX            <<<<7777<<<<7877      XX      XX    XX      ",
"XX  XXXX            <<<<7777<<<<7777      XX      XX    XX      "
};
