/* XPM */
static char *aca857c48d26419aea107362b9eeb692vmYNH19miEi7U2PE[] = {
/* columns rows colors chars-per-pixel */
"64 64 95 2 ",
"   c #0D2A33",
".  c #152333",
"X  c #113837",
"o  c #4D271A",
"O  c #4E281B",
"+  c #4E281D",
"@  c #551B56",
"#  c #531C56",
"$  c #541D57",
"%  c #541C59",
"&  c #831B3C",
"*  c #811C3C",
"=  c #9F0E5B",
"-  c #9E0F5E",
";  c #9D135E",
":  c #9E145F",
">  c #A00F5C",
",  c #9D1360",
"<  c #9E1461",
"1  c #A01361",
"2  c #A21564",
"3  c #AF1972",
"4  c #B21772",
"5  c #B11872",
"6  c #BB1A7A",
"7  c #BB197C",
"8  c #C31666",
"9  c #C51566",
"0  c #C31E6B",
"q  c #C41D6B",
"w  c #C31E6D",
"e  c #C41F6C",
"r  c #C11B7F",
"t  c #E2A952",
"y  c #FBFC63",
"u  c #FCFC66",
"i  c #6B33DE",
"p  c #6C32DF",
"a  c #6A35DF",
"s  c #6C34DF",
"d  c #6C33E2",
"f  c #6C34E0",
"g  c #7F5EE3",
"h  c #7F5DE5",
"j  c #E76184",
"k  c #805EE6",
"l  c #805EE8",
"z  c #EF9396",
"x  c #EF9597",
"c  c #EF9499",
"v  c #F09497",
"b  c #F09698",
"n  c #CF8EB6",
"m  c #CF8EB8",
"M  c #D18FB3",
"N  c #D08FB7",
"B  c #D08FB9",
"V  c #CE90B7",
"C  c #CF91BA",
"Z  c #D090B5",
"A  c #D190B8",
"S  c #FF9DB6",
"D  c #C8A2B1",
"F  c #F9BBBE",
"G  c #F8BCBE",
"H  c #C799D7",
"J  c #C999D7",
"K  c #C799D9",
"L  c #C89AD8",
"P  c #F9BBC0",
"I  c #CF93F3",
"U  c #D092F3",
"Y  c #D194F3",
"T  c #D193F4",
"R  c #D294F5",
"E  c #DEC2DB",
"W  c #DFC3DC",
"Q  c #E0C2DC",
"!  c #FEE1CF",
"~  c #FEE1D1",
"^  c #FFE3D5",
"/  c #E8E2E6",
"(  c #E7E1ED",
")  c #E8E1E8",
"_  c #E8E2EE",
"`  c #F7E6EC",
"'  c #F8E7EF",
"]  c #F7E8EF",
"[  c #F8E9EE",
"{  c #E6E2F0",
"}  c #E8E2F0",
"|  c #F7E7F1",
" . c #F8E7F1",
".. c #F5E8F1",
"X. c #F8E9F0",
/* pixels */
"                    . . . .             . .                 X X             X X             X X     X X X X         X X     X X ",
"                    . . . .             . .                 X X             X X             X X     X X X X         X X     X X ",
"    X X             X X                                     < H H ] ] q 0 0 0 0 0                                       X X     ",
"    X X             X X                                     < < H ] 0 0 0 0 ] 0 0                                       X X     ",
"    X X X X     . . . .                                 < < < < w w 0 0 q 0 0 0 w 0 0 q 0                   X X         X X     ",
"    X X X X     . . . .                               < ] < < 0 0 0 0 0 0 0 0 e e 0 0 0 0                   X X         X X     ",
"        X X                     . .                 L < ; 0 0 0 0 0 0 0 0 0 0 0 0 0 0 0 q [ ]           X X     X X             ",
"        X X                     . .                 H < < 0 ] ] 0 0 0 0 0 0 0 0 0 0 0 0 ] ] |           X X     X X             ",
"X X             . . X X X X X X                 X H ] 0 0 0 ] ] 0 0 0 0 0 0 0 0 0 0 0 0 ] ] ] ] ] . . . . .                     ",
"X X             . . X X X X X X               H K H ] 0 0 0 0 0 0 0 0 e ] 0 q 0 0 0 0 ] ]  .] ] ] . . . . .                     ",
"    X X         . .                 X X . .   H H ] ] 0 0 0 0 0 0 0 0 ] ] ] 0 w 0 q ] ] ] ] ] ] ] ] ] X                         ",
"    X X         . .                 X X . . H H H ] ] 0 0 q 0 0 0 0 e ] X.] 0 0 0 0 ] ] ] ] ] ] ] ] ] X                         ",
"            . . . . . . X X X X     X X     H H H ] w 0 w ] ] ] 0 0 0 q ] 0 0 0 0 0 ] ` ] ] ] ' ] ] ] ]                         ",
"            . . . . . . X X X X     X X   L H H ' q 0 0 | ] ] ] ] 0 0 w 0 0 0 0 0 0 ] ] X.' ] ] ] ] ] ]                         ",
". .             . .             X X X X   H H ] 0 e 0 ] ] ] ] ] ] ] e 0 w 0 0 0 0 0 ] ] ] X.] ] ] ' ] ]                         ",
". .             . .             X X X X < < 1 0 0 0 0 ] ] ] ' ] ] ] 0 0 0 e 0 0 0 0 0 0 ] ] ] ] ] ] ] ]                         ",
". .                     X X           < < < 0 0 0 0 0 ] ] ] ] ] ] ] q 0 0 0 0 0 e 0 e 0 ] ] ] ] ] ] ] ] X.              . . . . ",
". .                     X X         < < < 0 0 0 0 0 0 q ] ] ] ] ] 0 0 w q 0 0 0 0 0 0 0 q ' ] ] ] ] ] ] ]               . . . . ",
"            . . . .         X X X < < , < 0 e 0 0 0 q 0 0 ] ] ] 0 0 w 0 0 0 ] 0 0 0 0 0 0 0 | ] ] ] ` ] ] ]         . .         ",
"            . . . .         X X < < H H < 0 0 0 w 0 0 e e 0 0 0 w 0 0 0 0 0 q 0 e 0 0 0 0 0 0 w ] ] ] ] 0 0         . .         ",
"            X X X X . H H H H H < < L L 0 0 0 0 0 0 0 0 0 0 0 0 0 e 0 w 0 0 0 0 w 0 0 0 0 0 0 0 w 0 0 0 0 0 X X                 ",
"            X X X X . H H H H H < < < < 0 0 ] 0 0 < < < < < 1 < 1 < < 0 0 0 0 0 0 0 0 0 0 q 0 0 0 0 0 0 0 q X X                 ",
"                  H H H H H H H < < < < < 0 0 0 w N N B B V N N N N N 0 0 0 0 0 0 0 w q ] 0 w q q 0 q 0 0 0 0 X                 ",
"                  H H H H L K H < < < < < < < < < N N N N N N N A B N < < < < q e 0 w ] ] X.0 0 w w 0 0 ] ] ] X                 ",
". .         . H H H H H L H H < < < < < < N N N Z E E E Q E E E E Z N A N N n 0 0 0 0 0 ] 0 0 0 0 e 0 ] ] ] ] ]         . .     ",
". .         . J H K H H H H < < < < < < < V N N N E E E W E E E E E E N N N N < , < < 0 q 0 0 0 0 0 0 ] ] ] ] [ 0 0 0   . .     ",
". . . .       H H H H H < < < < $ $ $ N Z N N N E E E E E N N E E E E E E E E N N N C 0 e 0 0 0 0 q 0 ] ] ] ] ] 0 0 0       . . ",
". . . .       = ; H < < < $ $ $ $ $ $ N N N A N E E E E E N n W E E E E E W E E N N N < < < < < 0 0 0 0 ] ..] 0 q 0 | 0 0   . . ",
"                X < < $ $ % $ % $ $ % N N N n N E E E E E N N E E E E E E _ _ E E E E N A A N < < 1 0 0 0 w 0 0 0 q 0 0 e . . . ",
"                X > - $ @ $ $ $ $ $ % V N N N n E E E E E N N E W E E E E _ _ E E E E N N Z N < < < < e 0 0 0 0 0 e 0 0 0 0 . . ",
"                      < < $ $ $ $ $ $ A N N N N N N N N N N N N N N A N N F F B N E E E E _ _ N N < < 0 0 0 e ] ] 0 0 e 0 0     ",
"                      , < % $ $ $ $ $ Z N N N N N Z V N N N N N N n N n N F F N N W E W E _ _ N N < < < < 0 ' ] ] ] e 0 0 0     ",
"    X X X X               , $ # $ % # $ % N N N N F F O O F F F F o O ~ ~ ~ ~ N N E E E E E E _ _ $ $ 1 < < < ] ] e 0 0 q .     ",
"    X X X X               < 1 < < $ # $ $ n N V N F F + O F F F F O O ~ ~ ~ ~ N N E E E E E E _ _ $ $ $ # : < , < < 0 0 0 .     ",
"            X X . .         X X   , $ % % % $ N N S S O O ~ ~ ~ ~ O O S S ~ ~ N N E E b z E E ( _ $ # $ $ # < , < < , :         ",
"            X X . .         X X   < < < < < 1 Z N S S O O ~ ~ ~ ~ O O S S ~ ~ N N E E x x E E _ _ % $ $ $ $ $ < < < < ,         ",
"    . .         X X X X X X     X X X X X X   N N F F F F & * * * ~ ~ ~ ~ ~ ~ N N E E ~ ~ E E _ _ $ $ $ $ $ $ < < < < .         ",
"    . .         X X X X X X     X X X X X X   N n F F F F * * * * ~ ~ ~ ~ ! ~ B N E E ^ ~ W E ( _ < < < < 1 : < 1 < . .         ",
"X X X X                                   N n N N F F F G j j j j ~ ~ ~ ~ ~ ~ N N E E N N E E _ {                       . . X X ",
"X X X X                                   N N N N F F P F j j j j ~ ~ ~ ~ ~ ~ N N E E Z N E E _ _                       . . X X ",
"    X X                       N N   . N N N N N N < < h h T T x x x x h h T T 6 < N N N N E E _ _       X X X _ _ .             ",
"    X X                       N N   . V N N N Z V < < h h R T v x c x h h T T 6 < N A N N E E _ _       X X X _ } .             ",
". . . .             X X X X   N N N B N N N V < < < < h h T T 2 < < 4 h h T T 7 1 < < N N E W E _ _ _ _ _ _ _ E E               ",
". . . .             X X X X   N N Z N N N N N < < , < h h T T 2 < 1 4 h h T T r 2 < : N N E W E E _ _ _ _ ( _ E W               ",
"                        . .       N N N N N N < < < < h h T U 0 0 0 q h h R R h h < < < < N N E E E E W E E E X . . . .         ",
"                        . .       N n N M N N < < 0 0 h h T T 0 0 0 0 h h T T k l < < < < B N N B E E E E E E X . . . .         ",
"                        . . . . . .   N N ~ ~ 0 0 a d u u t t h h h h u u t t h h < < < < ~ ! N N N N E E X     . . X X X X     ",
"                        . . . . . .   N Z ~ ~ 0 q f f u u t t h h h h y u t t h h 5 5 5 3 ~ ~ N N N N m N X     . . X X X X     ",
"                X X     X X X X X X . ~ ~ x v f f f f s f f f k h h h h k h h T T T T x x x x ~ ~           X X                 ",
"                X X     X X X X X X . ~ ~ x x f f f s d f f f h h h h h h h h T T Y T x x v v ~ ~           X X                 ",
"X X             . .         . .       x x x x d i f f f f h h h h h h h h h h T T T T x x x x x x   X X . . X X                 ",
"X X             . .         . .       x x v x f f f f f f h h h h h h h h h h T T T T x x v x x x   X X . . X X                 ",
"                                              f f f f f f h h h g h h h h h h h g T R T T           . .         . . X X     X X ",
"                                              s f f f f f h h k k h h h h g g h h T T I T           . .         . . X X     X X ",
"    X X     X X                               f f i f d f f f d f d f f f f f f f h h T T   . . . .     . . . . X X     X X     ",
"    X X     X X                               p f f f d f f f f f f f f f f f f f h h T T   . . . .     . . . . X X     X X     ",
"                        . .                     X X   x x ~ ~ X       x x ~ ~ .                     . .     . . . . X X         ",
"                        . .                     X X   x x ~ ! X       x x ~ ! .                     . .     . . . . X X         ",
"                                X X                 X D D ) /         D D / /                   X X     X X     . .     X X     ",
"                                X X                 X D D / /         D D / /                   X X     X X     . .     X X     ",
"                    . .     X X                   < < < < 8 9     < < < < 9 8   X X X X             X X . .                 . . ",
"                    . .     X X                   < < < , 8 8     < < < < 8 8   X X X X             X X . .                 . . ",
"X X     X X X X                         . . . < < < < 8 8 8 8 < < < < 8 9 8 8       X X             X X         X X             ",
"X X     X X X X                         . . . < < < < 8 8 8 8 < < < < 8 8 8 8       X X             X X         X X             "
};
