/* XPM */
static char *_abdde9d8551435cbc30abf91366099669eRR4Xv0LURs8wJ[] = {
/* columns rows colors chars-per-pixel */
"64 64 18 1 ",
"  c #0D2A33",
". c #152333",
"X c #113837",
"o c #9E1460",
"O c #C41666",
"+ c #C31E6B",
"@ c #6C33E1",
"# c #805DE5",
"$ c #EF9497",
"% c #D08FB7",
"& c #C9A2B1",
"* c #C79AD7",
"= c #D194F5",
"- c #DEC1DA",
"; c #FFE1D1",
": c #E8E2E6",
"> c #E8E1EE",
", c #F7E7EF",
/* pixels */
"          ....      ..        XX      XX      XX  XXXX    XX  XX",
"          ....      ..       +,,,,,++ XX      XX  XXXX    XX  XX",
"  XX      XX               oo+,,,,,++++                     XX  ",
"  XX      XX             oo+++,,,,,++++++                   XX  ",
"  XXXX  ....            *oo++++,,,++++++++            XX    XX  ",
"  XXXX  ....           ***,++++++++++++++++           XX    XX  ",
"    XX          ..    ****,,+++++++++,++++++XX      XX  XX      ",
"    XX          ..   ****,,,++++++++++++++++,X      XX  XX      ",
"XX      ..XXXXXX     ****,,,+++++++++++++++,,   ......          ",
"XX      ..XXXXXX    ****,,,,+++++++++++++++,,,  ......          ",
"  XX    ..        XX****,,,,++++++++++++++,,,,..  XX            ",
"  XX    ..        X****,,,,,++++++++++++++,,,,,.  XX            ",
"      ......XXXX  X****,,,,,+++++++,,+++++,,,,,XXX              ",
"      ......XXXX  ****,,,,,,++++++,,,,+++++,,,,,XX              ",
"..      ..      X*****,,,,,++++++,,,,,,++++,,,,,,               ",
"..      ..      o****,,,,,+++++++,,,,,,++++++,,,,+              ",
"..          XX ooo**,,,,,+++++++++,,,,+++++++++++++         ....",
"..          XXooooo++++++++++++++++,,+++++++++++++++        ....",
"      ....   ooooo+++++++++++++++++++++++++++++++++++     ..    ",
"      .... ooooooo++++++++++++++++++++++++++++++++++,,,   ..    ",
"      XXooooooooo++++++++,,++++++++++++++++,+++++++,,,,,        ",
"      Xoooooooooo+++++++,,,,++++++++++++++,,,++++++,,,,,,       ",
"       **oooooo*+++++++,,,,,,++++++++++++++,+++++++,,,,,,       ",
"      ****oooooo+++++++,,,,,,++++++++++++++++++++++,,,,,**      ",
"..   oo**oooooo+++++++++,,,,+++++++++++++++++++++++,,,,**** ..  ",
"..  ooooooooooo++++++++++,,++++++++++++++++++++++ooo******o ..  ",
"....ooooooooooooooo++++++++++++++++++++++++++++oooooo****oo   ..",
"....oooooooooooooooo+++++++++++++++++++++++++++oooooooooooo   ..",
"    oooooooooooooooooo++++++++++++++++++++++ooooooooooooooo ....",
"    ooooo*oooooo***ooooooo+*++++++++*******oooooooooooooooo ....",
"    oooo***oooo*****oooooo***oooooo*********ooooooooooooooo     ",
"    ooooo*ooooo*****oooooo***oooooo*********oooooooo*ooooo      ",
"  XXXooooooooooo***oooooooo*oooooo***********ooooooooooooo  ..  ",
"  XXXXoooooooooooooooooooooooooooo***********oooooooooooo   ..  ",
"      XXoooooooooooooooooooooooooo***********ooooooooooo        ",
"      XX.ooooooooooooooooooooooooo***********oooooooooo         ",
"  ..    XXXoooooooooooooooooooooooo**********oooooooooo ....    ",
"  ..    XXXXXXooooooooooooooooooooo*********oooooooo    ....    ",
"XXXX              %ooooooooooooooooo*******oooo%            ..XX",
"XXXX              -%%%%%%%%%%%%%%%%%%%%%%%%%%%%>            ..XX",
"  XX      --     ---%---%%%%%%%%%%%%%%%%%%%%%-->>   XX>>..      ",
"  XX      --     --%%-----%----%%%%--->%--->>%->>   XX>>..      ",
"....      ---------%%-----%-->%--->%-->%--->>%->>>>>>>>>        ",
"....      --------%%-----%%-->%--->%-->%%--->>%--->>>>>>        ",
"           ------%%%----%%%%->%--->%-->%%%--->>%-------X....    ",
"           %%%%%%%%%%-%%%%%%%%%--->%--->%%%--->>%%%----X....    ",
"            .%%%%%%%%%%%%%%%%%%%--%%%-->%%%%%->>>%%%%X  ..XXXX  ",
"            .%%%%%%%%%%%%%%%%%%%%%%%%%%%>%%%%%%%%%%%%X  ..XXXX  ",
"        XX  XXXXXX.%%%%%%%%%%%%%%%%%%%%%%%%%%%%       XX        ",
"        XX  XXXXXX.;;%%%%%%%%%%%%%%%%%%%%%%%%;;       XX        ",
"XX      ..    ..   ;;$$@@%%%%%%%%%%%%%%%%==$$;;   XX..XX        ",
"XX      ..    ..   ;;$$@@@@@@@@@#######====$$;;   XX..XX        ",
"                     @@@@@@@@@@@#########====     ..    ..XX  XX",
"                   @@@@@@@@@@@@@#########====     ..    ..XX  XX",
"  XX  XX           @@@@@@@@@@@@@@@@########== ....  ....XX  XX  ",
"  XX  XX           @@@@@@@@@@@@@@@@########== ....  ....XX  XX  ",
"            ..          XX ;;$$X   ;;$$.          ..  ....XX    ",
"            ..          XX ;;$$X   ;;$$.          ..  ....XX    ",
"                XX        X::&&    ::&&         XX  XX  ..  XX  ",
"                XX        X::&&    ::&&         XX  XX  ..  XX  ",
"          ..  XX           OOOO    OOOO XXXX      XX..        ..",
"          ..  XX           OOOO    OOOO XXXX      XX..        ..",
"XX  XXXX            ....   ooooX   oooo   XX      XX    XX      ",
"XX  XXXX            ....   ooooX   oooo   XX      XX    XX      "
};
