/* XPM */
static char *f6eb1587f0684f16c578bd9a730c3d55gI2e28kGx9mXfUOD[] = {
/* columns rows colors chars-per-pixel */
"64 64 48 1 ",
"  c #0D2A33",
". c #152333",
"X c #113837",
"o c #4E291B",
"O c #541D57",
"+ c #551E58",
"@ c #811C3D",
"# c #9E0F5C",
"$ c #9E1460",
"% c #A21565",
"& c #AC176D",
"* c #B11872",
"= c #BC1A7B",
"- c #BE1A7C",
"; c #C41666",
": c #C31E6B",
"> c #C61F6F",
", c #D2247D",
"< c #E3A852",
"1 c #FCFC67",
"2 c #6630DA",
"3 c #6831DD",
"4 c #6C33E1",
"5 c #6F50D2",
"6 c #7857DC",
"7 c #7A59DF",
"8 c #C21B80",
"9 c #C61C84",
"0 c #CF1D8C",
"q c #E76184",
"w c #805DE5",
"e c #EF9497",
"r c #EF9699",
"t c #CF8DB6",
"y c #D08FB7",
"u c #FF9DB6",
"i c #C9A2B1",
"p c #FABBBE",
"a c #C79AD7",
"s c #E0BFD9",
"d c #D194F5",
"f c #DEC1DA",
"g c #FFE1D1",
"h c #FFE4D5",
"j c #E8E2E6",
"k c #E8E1EE",
"l c #F7E7EF",
"z c #FAFCFE",
/* pixels */
"          ....      ..        XX      XX      XX  XXXX    XX  XX",
"          ....      ..        XX      XX      XX  XXXX    XX  XX",
"  XX      XX                                                XX  ",
"  XX      XX                                                XX  ",
"  XXXX  ....                  ....  XX..              XX    XX  ",
"  XXXX  ....                  ....  XX..              XX    XX  ",
"    XX          ..       ::lllll::::        XX      XX  XX      ",
"    XX          ..       ::lllll::l:        XX      XX  XX      ",
"XX      ..XXXXXX     :::::::lll::::::l          ......          ",
"XX      ..XXXXXX     :::::::::::::::lll         ......          ",
"  XX    ..        X$:::::::::::::::lllll  ......  XX            ",
"  XX    ..        X$:l:::::::::::::lllll  ......  XX            ",
"      ......XXXX aa::::::ll::::::::llllllX  XXXXXX              ",
"      ......XXXX all:::::ll::::::::llllllll XXXXXX              ",
"..      ..     aaall:::::::::::l:::llllllllX                    ",
"..      ..     aallll:::::::::lll::lllllllll                    ",
"..          XXaaallll:::::::::lll:::llllllll                ....",
"..          XXaalllll::::::::::l::::lllllllll               ....",
"      ....    aallll::::lll::::::::::llllllll.XX  ..      ..    ",
"      ....    aallll:::lllll:::::::::::lllllllXX  ..      ..    ",
"      XXXX.. aallll:::lllllll::::::::::::::::::       XX        ",
"      XXXX.. aall:::::lllllll:::::::::::::::::::      XX        ",
"            $$$:::::::lllllll::::::l:::::::::::::   XXXX        ",
"            $$:::::::::lllll::::::::::::::::::::ll  XXXX        ",
"..    ....  $$::::::::::lll:::::::::::::::l::::lllll:::X    ..  ",
"..    ....  $$:::::::::::::::::$$$$$$$$$$zll:::lllll:::X    ..  ",
"....      .$$:::lll::::::::::::yyyyyyyyyy:l::::lllll:::l:X    ..",
"....      .$$:::lll::::l:::$$$$ffffffffff$$$$:::lll::::$$X    ..",
"        XXaa::::lll::::::::yyyyffffffffffyyyy:::::::::$$$:; ....",
"       aaaaal::::::::::$$$$ffffffkkyyffffkkff$$$$$$$$$$$$#; ....",
"       aaaalll:::::::::yyyyffffffkkyyffffkkffyyOOOOOOOO$$##     ",
"     aaaaaalll::::$$$$$ffffyyffffkkyyffkkyyffkkOOOOOOOOO$##     ",
"  XXXaaaaaaall::$$$yyyyffffyyffffkkyyffkkyyffkkOOOOOOOOO$   ..  ",
"  XX$aaaaaaaaa$$$$$ffffffyyeeyyyyyyyyyyyyyyffkkOOOOOOOOO#   ..  ",
"    $aaaaaaa$$$$$yyffffffyyeeyyyyyyyyyyyyyyffkk+OOOOOO$         ",
"    $aaaaaa$$$$$$ffffffffyyppppooggggooggyyyyOOOOOOOOO$         ",
"  .. aaaaa$$$$$OOffffffffyyppppooggggooggyyyt+OOOOOO$   ....    ",
"  .. aa$$$$$OOOOOfffferffyyppuuooggggoouuyyOOOOOO$$$$   ....    ",
"XXXX  $$$$OOOOOOOffffeeffyyppuuooggggoouuyyOOOO$$           ..XX",
"XXXX  $$$$OOOOOOOffffggffyyppppgg@@@@ggggyy$$$$$$           ..XX",
"  XX   $$$$OOOOO$ffffghffyyppppgg@@@@ggggyy         XXXX..      ",
"  XX    $$$$$$$$$ffffyyffyyppppggqqqqggggyfff       XXXX..      ",
"....      XXXX   ffffyyffyyppppggqqqqggggyfff ..    ....        ",
"....     fsXXX   ffffyyyy$=wwdd*$$%wwdd$$yfffff. ff ....        ",
"         ff ..   ffffyyyy%8wwdd*$$%wwdd$$yfffff .ff   XX....    ",
"         ffffffffffffyy$$24wwdd,::>wwdd$$$$yfffffff   XX....    ",
"         ffffffffffffyy$$24wwdd,::>wwdd&&$$yfffffffXXX  ..XXXX  ",
"           ffffffffyy$$$$24<<117556<<11ww9$yyyyyy XXXX  ..XXXX  ",
"        XX ffffffyyyy****34<<11wwww<<11ww0-yyyyyy     XX        ",
"        XX  Xffyyyyeeee444444wwwwwwwwwwddddeeyy       XX        ",
"XX      ..   yyyyyyeeee444444wwwwwwwwwwddddeeyy   XX..XX        ",
"XX      ..    .. eeeeee4444wwwwwwwwddddddddeeee   XX..XX        ",
"                 eeeeee4444wwwwwwwwddddddddeeee   ..    ..XX  XX",
"                     444444wwwwwwdddddddddd       ..    ..XX  XX",
"  XX  XX             444444wwwwwwdddddddddd   ....  ....XX  XX  ",
"  XX  XX             4444444444444444444444   ....  ....XX  XX  ",
"            ..       4444444444444444444444       ..  ....XX    ",
"            ..          XX eeggX   eegg.          ..  ....XX    ",
"                XX        Xiijj    iijj         XX  XX  ..  XX  ",
"                XX        Xiijj    iijj         XX  XX  ..  XX  ",
"          ..  XX           $$;;;;  $$;;;;XXX      XX..        ..",
"          ..  XX           $$;;;;  $$;;;;XXX      XX..        ..",
"XX  XXXX            ....   $$;;;;;;$$;;;;;;X      XX    XX      ",
"XX  XXXX            ....   $$;;;;;;$$;;;;;;X      XX    XX      "
};
