/* XPM */
static char *_723c3b038b4451af1ef9b1ffef4353fKWeGvykO3FQ7vuj3[] = {
/* columns rows colors chars-per-pixel */
"64 64 18 1 ",
"  c #0D2A33",
". c #152333",
"X c #113837",
"o c #9E1460",
"O c #C41666",
"+ c #C31E6B",
"@ c #6C33E1",
"# c #805DE5",
"$ c #EF9497",
"% c #D08FB7",
"& c #C9A2B1",
"* c #C79AD7",
"= c #D194F5",
"- c #DEC1DA",
"; c #FFE1D1",
": c #E8E2E6",
"> c #E8E1EE",
", c #F7E7EF",
/* pixels */
"          ....      ..        XX      XX      XX  XXXX    XX  XX",
"          ....      ..        XX      XX      XX  XXXX    XX  XX",
"  XX      XX                                                XX  ",
"  XX      XX                                                XX  ",
"  XXXX  ....                  ....  XX..              XX    XX  ",
"  XXXX  ....                 +,,,,,++X..              XX    XX  ",
"    XX          ..         oo+,,,,,++++     XX      XX  XX      ",
"    XX          ..       oo+++,,,,,++++++   XX      XX  XX      ",
"XX      ..XXXXXX        *oo++++,,,++++++++      ......          ",
"XX      ..XXXXXX       ***,++++++++++++++++     ......          ",
"  XX    ..        XX..****,,+++++++++,++++++....  XX            ",
"  XX    ..        XX.****,,,++++++++++++++++,...  XX            ",
"      ......XXXX  XX ****,,,+++++++++++++++,,XXXXX              ",
"      ......XXXX  XX****,,,,+++++++++++++++,,,XXXX              ",
"..      ..      XXXX****,,,,++++++++++++++,,,,                  ",
"..      ..      XXX****,,,,,++++++++++++++,,,,,                 ",
"..          XX     ****,,,,,+++++++,,+++++,,,,,             ....",
"..          XX    ****,,,,,,++++++,,,,+++++,,,,,            ....",
"      ....    XXX*****,,,,,++++++,,,,,,++++,,,,,, ..      ..    ",
"      ....    XXo****,,,,,+++++++,,,,,,++++++,,,,+..      ..    ",
"      XXXX..   ooo**,,,,,+++++++++,,,,+++++++++++++   XX        ",
"      XXXX..  ooooo++++++++++++++++,,+++++++++++++++  XX        ",
"             ooooo+++++++++++++++++++++++++++++++++++XXX        ",
"           ooooooo++++++++++++++++++++++++++++++++++,,,X        ",
"..    ..ooooooooo++++++++,,++++++++++++++++,+++++++,,,,,    ..  ",
"..    .oooooooooo+++++++,,,,++++++++++++++,,,++++++,,,,,,   ..  ",
"....   **oooooo*+++++++,,,,,,++++++++++++++,+++++++,,,,,,X    ..",
"....  ****oooooo+++++++,,,,,,++++++++++++++++++++++,,,,,**    ..",
"     oo**oooooo+++++++++,,,,+++++++++++++++++++++++,,,,**** ....",
"    ooooooooooo++++++++++,,++++++++++++++++++++++ooo******o ....",
"    ooooooooooooooo++++++++++++++++++++++++++++oooooo****oo     ",
"    oooooooooooooooo+++++++++++++++++++++++++++oooooooooooo     ",
"  XXoooooooooooooooooo++++++++++++++++++++++ooooooooooooooo ..  ",
"  XXooooo*oooooo***ooooooo+*++++++++*******oooooooooooooooo ..  ",
"    oooo***oooo*****oooooo***oooooo*********ooooooooooooooo     ",
"    ooooo*ooooo*****oooooo***oooooo*********oooooooo*ooooo      ",
"  .. ooooooooooo***oooooooo*oooooo***********ooooooooooooo..    ",
"  ..  oooooooooooooooooooooooooooo***********oooooooooooo...    ",
"XXXX    oooooooooooooooooooooooooo***********ooooooooooo    ..XX",
"XXXX     ooooooooooooooooooooooooo***********oooooooooo     ..XX",
"  XX       oooooooooooooooooooooooo**********ooooooooooX..      ",
"  XX          ooooooooooooooooooooo*********ooooooooXXXX..      ",
"....      --XX   --ooooooooooooooooo*******oooo>>   ..>>        ",
"....      --XX   --%%-----%----%%%%--->%--->>%->>   ..>>        ",
"          ---------%%-----%-->%--->%-->%--->>%->>>>>>>>>....    ",
"          --------%%-----%%-->%--->%-->%%--->>%--->>>>>>....    ",
"           ------%%%----%%%%->%--->%-->%%%--->>%------- ..XXXX  ",
"           %%%%%%%%%%-%%%%%%%%%--->%--->%%%--->>%%%---- ..XXXX  ",
"        XX  X%%%%%%%%%%%%%%%%%%%--%%%-->%%%%%->>>%%%% XX        ",
"        XX  X%%%%%%%%%%%%%%%%%%%%%%%%%%%>%%%%%%%%%%%% XX        ",
"XX      ..    ..   %%%%%%%%%%%%%%%%%%%%%%%%%%%%   XX..XX        ",
"XX      ..    ..   ;;%%%%%%%%%%%%%%%%%%%%%%%%;;   XX..XX        ",
"                   ;;$$@@%%%%%%%%%%%%%%%%==$$;;   ..    ..XX  XX",
"                     @@@@@@@@@@@#########====     ..    ..XX  XX",
"  XX  XX           @@@@@@@@@@@@@#########==== ....  ....XX  XX  ",
"  XX  XX           @@@@@@@@@@@@@@@@########== ....  ....XX  XX  ",
"            ..     @@@@@@@@@@@@@@@@########==     ..  ....XX    ",
"            ..          XX ;;$$X   ;;$$.          ..  ....XX    ",
"                XX        X::&&    ::&&         XX  XX  ..  XX  ",
"                XX        X::&&    ::&&         XX  XX  ..  XX  ",
"          ..  XX           OOOO    OOOO XXXX      XX..        ..",
"          ..  XX           OOOO    OOOO XXXX      XX..        ..",
"XX  XXXX            ....   ooooX   oooo   XX      XX    XX      ",
"XX  XXXX            ....   ooooX   oooo   XX      XX    XX      "
};
