/* XPM */
static char *_6c9d9e38acd4f35fc1e86023dc59c4a4LwnVnmNUbUfy8AN[] = {
/* columns rows colors chars-per-pixel */
"64 64 13 1 ",
"  c #29183A",
". c #0D2A33",
"X c #152333",
"o c #113837",
"O c #4C463E",
"+ c #4B3259",
"@ c #5D4567",
"# c #6E6861",
"$ c #706A63",
"% c #706A64",
"& c #726B73",
"* c #736C72",
"= c gray45",
/* pixels */
"..........XXXX......XX........oo......oo......oo..oooo....oo..oo",
"..........XXXX......XX........oo......oo......oo..oooo....oo..oo",
"..oo......oo................................................oo..",
"..oo......oo................................................oo..",
"..oooo..OOXX..................XXXX..ooXX..............oo....oo..",
"..oooo..OOXX..................XXXX..ooXX..............oo....oo..",
"....ooOO##OO....XX..........oo..oo..........oo......oo..oo......",
"....ooOO##OO....XX..........oo..oo..........oo......oo..oo......",
"oo....OO$$OOoooo........oo......................XXXXXX..........",
"oo....OO$$OOoooo........oo......................XXXXXX..........",
"..oo....OO%%OO....ooXX..........XX........XXXXXX..oo............",
"..oo....OO%%OO....ooXX..........XX........XXXXXX..oo............",
"......XXOO$$OOoo..oo....oo........oooo..oo..oooooo..............",
"......XXOO$$OOoo..oo....oo........oooo..oo..oooooo..............",
"XX......OO##OO..oooo....XX..XX............oo....................",
"XX......OO##OO..oooo....XX..XX............oo....................",
"XX........OO$$OO......XX..XX..XX..........oo................XXXX",
"XX........OO$$OO......XX..XX..XX..........oo................XXXX",
"......XXXXOO$$OOoo............XX........oo..XXoo..XX......XX....",
"......XXXXOO$$OOoo............XX........oo..XXoo..XX......XX....",
"......ooooXXOO$$OO......XXXX......oooo..oo............oo........",
"......ooooXXOO$$OO......XXXX......oooo..oo............oo........",
"..........                                            oo........",
"..........                                            oo........",
"XX....XX  @@@@@@@@@@@@@@@@@@++++++++++++++++++++++++++  ....XX..",
"XX....XX  @@@@@@@@@@@@@@@@@+++++++++++++++++++++++++++  ....XX..",
"XXXX......                                            ..oo....XX",
"XXXX......                                            ..oo....XX",
"........    @@@@@@@@++++++++++++++++++++++++++++++++++  ....XXXX",
"........    @@@@@@@@++++++++++++++++++++++++++++++++++  ....XXXX",
"........  @@@@**@@++++++++++++++++++++++++++++++++++++  ........",
"........  @@@@**@@++++++++++++++++++++++++++++++++++++  ........",
"..oooo..  @@@@&&@@++++++++++++++++++++++++++++++++++++  ....XX..",
"..oooo..  @@@@&&@@++++++++++++++++++++++++++++++++++++  ....XX..",
"......  @@@@==++++++++++++++++++++++++++++++++++++++++++  ......",
"......  @@@@==++++++++++++++++++++++++++++++++++++++++++  ......",
"..XX..  @@@@==++++++++++++++++++++++++++++++++++++++++++  XX....",
"..XX..  @@@@==++++++++++++++++++++++++++++++++++++++++++  XX....",
"oooo..  @@@@++++++++++++++++++++++++++++++++++++++++++++  ..XXoo",
"oooo..  @@@@++++++++++++++++++++++++++++++++++++++++++++  ..XXoo",
"..oo..  @@@@++++++++++++++++++++++++++++++++++++++++++++  ......",
"..oo..  @@@@++++++++++++++++++++++++++++++++++++++++++++  ......",
"XXXX..  @@@@++++++++++++++++++++++++++++++++++++++++++++  ......",
"XXXX..  @@@@++++++++++++++++++++++++++++++++++++++++++++  ......",
"........  @@++++++++++++++++++++++++++++++++++++++++++  XXXX....",
"........  @@++++++++++++++++++++++++++++++++++++++++++  XXXX....",
"........  @@++++++++++++++++++++++++++++++++++++++++++  XXoooo..",
"........  @@++++++++++++++++++++++++++++++++++++++++++  XXoooo..",
"........  @@@@++++++++++++++++++++++++++++++++++++++++  ........",
"........  @@@@++++++++++++++++++++++++++++++++++++++++  ........",
"oo......XX  @@++++++++++++++++++++++++++++++++++++++  oo........",
"oo......XX  @@++++++++++++++++++++++++++++++++++++++  oo........",
"............  @@@@++++++++++++++++++++++++++++++++  ....XXoo..oo",
"............  @@@@++++++++++++++++++++++++++++++++  ....XXoo..oo",
"..oo..oo....OO    @@++++++++++++++++++++++++++    OOXXXXoo..oo..",
"..oo..oo....OO    @@++++++++++++++++++++++++++    OOXXXXoo..oo..",
"..........OO$$$$$$    ++++++++++++++++++      $$$$$$OOXXXXoo....",
"..........OO$$$$$$    ++++++++++++++++++      $$$$$$OOXXXXoo....",
"........OO$$$$OOOO....                    ....OOOO$$$$OOXX..oo..",
"........OO$$$$OOOO....                    ....OOOO$$$$OOXX..oo..",
"..........OOOOoo........................oooo......OOOO........XX",
"..........OOOOoo........................oooo......OOOO........XX",
"oo..oooo............XXXX....oooo..........oo......oo....oo......",
"oo..oooo............XXXX....oooo..........oo......oo....oo......"
};
