/* XPM */
static char *_f5b2bd0714b4e6cea21b9d94d06350dRLnq8nCRTD8dUBgD[] = {
/* columns rows colors chars-per-pixel */
"64 64 18 1 ",
"  c #0D2A33",
". c #152333",
"X c #113837",
"o c #E0A372",
"O c #481E92",
"+ c #6331AD",
"@ c #A350F6",
"# c #CE8BFF",
"$ c #FAE1CF",
"% c #F6E2D4",
"& c #F9E2D1",
"* c #FCE2D2",
"= c #F9E4D6",
"- c #FCE4D4",
"; c #F9E4D8",
": c #F9EBFF",
"> c #FCECFF",
", c white",
/* pixels */
"          ....      ..        XX      XX      XX  XXXX    XX  XX",
"          ....      ..        XX      XX      XX  XXXX    XX  XX",
"  XX      XX                                                XX  ",
"  XX      XX                                                XX  ",
"  XXXX  oo..                  ....  XX..              XX    XX  ",
"  XXXX  oo..                  ....  XX..              XX    XX  ",
"    XXoo;;oo    ..          XX  XX          XX      XX  XX      ",
"    XXoo;;oo    ..          XX  XX          XX      XX  XX      ",
"XX    oo==ooXXXX        XX                      ......          ",
"XX    oo==ooXXXX        XX                      ......          ",
"  XX    oo;;oo    XX..          ..        ......  XX            ",
"  XX    oo;;oo    XX..          ..        ......  XX            ",
"      ..oo&&ooXX  XX    XX        XXXX  XX  XXXXXX              ",
"      ..oo&&ooXX  XX    XX        XXXX  XX  XXXXXX              ",
"..      oo%%oo  XXXX    ..  ..            XX                    ",
"..      oo%%oo  XXXX    ..  ..            XX                    ",
"..        oo**oo      ..  ..  ..          XX                ....",
"..        oo**oo      ..  ..  ..          XX                ....",
"      ....oo--ooXX            ..        XX  ..XX  ..      ..    ",
"      ....oo--ooXX            ..        XX  ..XX  ..      ..    ",
"      XXXX..oo&&oo      ....      XXXX  XX            XX        ",
"      XXXX..oo&&oo      ....      XXXX  XX            XX        ",
"          OOOOOOOOOOOOOOOOOOOOOOOOOOOOOOOOOOOOOOOOOOOOXX        ",
"          OOOOOOOOOOOOOOOOOOOOOOOOOOOOOOOOOOOOOOOOOOOOXX        ",
"..    ..OO##################@@@@@@@@@@@@@@@@@@@@@@@@@@OO    ..  ",
"..    ..OO##################@@@@@@@@@@@@@@@@@@@@@@@@@@OO    ..  ",
"....      OOOOOOOOOOOOOOOOOOOOOOOOOOOOOOOOOOOOOOOOOOOO  XX    ..",
"....      OOOOOOOOOOOOOOOOOOOOOOOOOOOOOOOOOOOOOOOOOOOO  XX    ..",
"        OOOO########@@++++++++++++++++++++++++++++++++OO    ....",
"        OOOO########@@++++++++++++++++++++++++++++++++OO    ....",
"        OO####>>##@@@@@@@@@@@@@@@@@@@@@@@@@@@@@@@@@@@@OO        ",
"        OO####>>##@@@@@@@@@@@@@@@@@@@@@@@@@@@@@@@@@@@@OO        ",
"  XXXX  OO####::##@@@@@@@@@@@@@@@@@@@@@@@@@@@@@@@@@@@@OO    ..  ",
"  XXXX  OO####::##@@@@@@@@@@@@@@@@@@@@@@@@@@@@@@@@@@@@OO    ..  ",
"      OO####,,@@@@@@@@@@@@@@@@@@@@@@@@@@@@@@@@@@@@@@@@@@OO      ",
"      OO####,,@@@@@@@@@@@@@@@@@@@@@@@@@@@@@@@@@@@@@@@@@@OO      ",
"  ..  OO####,,@@@@@@@@@@@@@@@@@@@@@@@@@@@@@@@@@@@@@@@@@@OO..    ",
"  ..  OO####,,@@@@@@@@@@@@@@@@@@@@@@@@@@@@@@@@@@@@@@@@@@OO..    ",
"XXXX  OO####@@@@@@@@@@@@@@@@@@@@@@@@@@@@@@@@@@@@@@@@@@@@OO  ..XX",
"XXXX  OO####@@@@@@@@@@@@@@@@@@@@@@@@@@@@@@@@@@@@@@@@@@@@OO  ..XX",
"  XX  OO####@@@@@@@@@@@@@@@@@@@@@@@@@@@@@@@@@@@@@@@@@@@@OO      ",
"  XX  OO####@@@@@@@@@@@@@@@@@@@@@@@@@@@@@@@@@@@@@@@@@@@@OO      ",
"....  OO####@@@@@@@@@@@@@@@@@@@@@@@@@@@@@@@@@@@@@@@@@@@@OO      ",
"....  OO####@@@@@@@@@@@@@@@@@@@@@@@@@@@@@@@@@@@@@@@@@@@@OO      ",
"        OO##@@@@@@@@@@@@@@@@@@@@@@@@@@@@@@@@@@@@@@@@@@OO....    ",
"        OO##@@@@@@@@@@@@@@@@@@@@@@@@@@@@@@@@@@@@@@@@@@OO....    ",
"        OO##@@@@@@@@@@@@@@@@@@@@@@@@@@@@@@@@@@@@@@@@@@OO..XXXX  ",
"        OO##@@@@@@@@@@@@@@@@@@@@@@@@@@@@@@@@@@@@@@@@@@OO..XXXX  ",
"        OO####@@@@@@@@@@@@@@@@@@@@@@@@@@@@@@@@@@@@@@@@OO        ",
"        OO####@@@@@@@@@@@@@@@@@@@@@@@@@@@@@@@@@@@@@@@@OO        ",
"XX      ..OO##@@@@@@@@@@@@@@@@@@@@@@@@@@@@@@@@@@@@@@OOXX        ",
"XX      ..OO##@@@@@@@@@@@@@@@@@@@@@@@@@@@@@@@@@@@@@@OOXX        ",
"            OO####@@@@@@@@@@@@@@@@@@@@@@@@@@@@@@@@OO    ..XX  XX",
"            OO####@@@@@@@@@@@@@@@@@@@@@@@@@@@@@@@@OO    ..XX  XX",
"  XX  XX    ooOOOO##@@@@@@@@@@@@@@@@@@@@@@@@@@OOOOoo....XX  XX  ",
"  XX  XX    ooOOOO##@@@@@@@@@@@@@@@@@@@@@@@@@@OOOOoo....XX  XX  ",
"          oo******OOOOOO@@@@@@@@@@@@@@@@OOOOOO******oo....XX    ",
"          oo******OOOOOO@@@@@@@@@@@@@@@@OOOOOO******oo....XX    ",
"        oo$$**oooo    OOOOOOOOOOOOOOOOOOOO    oooo**&&oo..  XX  ",
"        oo$$**oooo    OOOOOOOOOOOOOOOOOOOO    oooo**&&oo..  XX  ",
"          ooooXX                        XXXX      oooo        ..",
"          ooooXX                        XXXX      oooo        ..",
"XX  XXXX            ....    XXXX          XX      XX    XX      ",
"XX  XXXX            ....    XXXX          XX      XX    XX      "
};
