/* XPM */
static char *_1d926fc7f3f4c60e94d3b55cc6c8725IoBlwHc2ofdL8FUe[] = {
/* columns rows colors chars-per-pixel */
"64 64 30 1 ",
"  c #0D2A33",
". c #152333",
"X c #113837",
"o c #421C81",
"O c #5D3AAD",
"+ c #562EB4",
"@ c #5931B2",
"# c #7A4A80",
"$ c #6A45D6",
"% c #6E47E8",
"& c #764DE2",
"* c #7148E5",
"= c #744BE6",
"- c #704DE6",
"; c #774FE6",
": c #754DE8",
"> c #784DEA",
", c #7551E6",
"< c #7C52E2",
"1 c #7A52E6",
"2 c #7C55EA",
"3 c #7D52ED",
"4 c #7E4FF5",
"5 c #895598",
"6 c #8E5A9F",
"7 c #8657F5",
"8 c #8658F5",
"9 c #8B58FB",
"0 c #D8CCE8",
"q c white",
/* pixels */
"          ....      ..        XX      XX      XX  XXXX    XX  XX",
"          ....      ..        XX      XX      XX  XXXX    XX  XX",
"  XX      XX                                                XX  ",
"  XX      XX                                                XX  ",
"  XXXX  ....                  ....  XX..              XX    XX  ",
"  XXXX  ....                  ....  XX..              XX    XX  ",
"    XX          ..          XX  XX          XX      XX  XX      ",
"    XX          ..          XX  XX          XX      XX  XX      ",
"XX      ..XXXXXX        XX                      ......          ",
"XX      ..XXXXXX        XX                      ......          ",
"  XX    ..        XX..          ..        ......  XX            ",
"  XX    ..        XX..          ..        ......  XX            ",
"      ......XXXX  XX    XX        XXXX  XX  XXXXXX              ",
"      ......XXXX  XX    XX        XXXX  XX  XXXXXX              ",
"..      ..      XXXX    ..  ..            XX                    ",
"..      ..      XXXX    ..  ..            XX                    ",
"..          XX        ..  ..  ..          XX                ....",
"..          XX        ..  ..  ..          XX                ....",
"      ....    XXXX            ..        XX  ..XX  ..      ..    ",
"      ....    XXXX            ..        XX  ..XX  ..      ..    ",
"      XXXX..            ....oooooooooo  XX            XX        ",
"      XXXX..            ....oooooooooo  XX            XX        ",
"                    ..    oo8888887799ooXX          XXXX        ",
"                    ..    oo8888887799ooXX          XXXX        ",
"..    ....    XX  ....XXoooo;2222222;;oo  ..  ..    ..XX    ..  ",
"..    ....    XX  ....XXoooo;2222222;;oo  ..  ..    ..XX    ..  ",
"....      ..XXXX    XXoooo;;2qqqqqqq2:11ooXXXX  ..  ..  XX    ..",
"....      ..XXXX    XXoooo;;qqqqqqqqq:11ooXXXX  ..  ..  XX    ..",
"        XX    XX  ..oo$$<<*qqqqqqqqqqq==%%oooo      ..      ....",
"        XX    XX  ..oo$$<22qqqqqqqqqqq==%%oooo      ..      ....",
"                ..  oo2222qqq;;qqq;;qqq2,,oooo..                ",
"                ..  oo2222qqq;;qqq;;qqq2,,oooo..                ",
"  XXXX            oo222222qqqqqqqqqqqqq>;;44@@oo            ..  ",
"  XXXX            oo2222222qqqqqqqqqqq>>;;44@@oo            ..  ",
"      XX..    XX  oo2222222qqqqqqqqqqq;;::::OOoo                ",
"      XX..    XX  oo22222222qqqqqqqqq;;;::::OOoo                ",
"  ..    XXXXXX  XXoo222222222qq1;;qq;;;;::::OOoo        ....    ",
"  ..    XXXXXX  XXoo222222222qq1;;qq;;;;::::OOoo        ....    ",
"XXXX              oo33222222----;;;;&&::;;;;++oo            ..XX",
"XXXX              oo33222222----;;;;&&::;;;;++oo            ..XX",
"  XX              ..oooooo##5555555566##oooooo      XXXX..      ",
"  XX              ..oooooo##5555555566##oooooo      XXXX..      ",
"....      XXXX          ..##0000qqqqqq##..    ..    ....        ",
"....      XXXX          ..##0000qqqqqq##..    ..    ....        ",
"            ..        XX  ##0000qqqqqq##XX      ..    XX....    ",
"            ..        XX  ##0000qqqqqq##XX      ..    XX....    ",
"            ......        ##0000qqqqqq##          XXXX  ..XXXX  ",
"            ......        ##0000qqqqqq##          XXXX  ..XXXX  ",
"        XX  XXXXXX..  XX    ##########  ..            XX        ",
"        XX  XXXXXX..  XX    ##########  ..            XX        ",
"XX      ..    ..    ..      XXXX                  XX..XX        ",
"XX      ..    ..    ..      XXXX                  XX..XX        ",
"                        XX  ......XX              ..    ..XX  XX",
"                        XX  ......XX              ..    ..XX  XX",
"  XX  XX                  ..    ....          ....  ....XX  XX  ",
"  XX  XX                  ..    ....          ....  ....XX  XX  ",
"            ..          XX    XX      ..          ..  ....XX    ",
"            ..          XX    XX      ..          ..  ....XX    ",
"                XX        XXXX                  XX  XX  ..  XX  ",
"                XX        XXXX                  XX  XX  ..  XX  ",
"          ..  XX                        XXXX      XX..        ..",
"          ..  XX                        XXXX      XX..        ..",
"XX  XXXX            ....    XXXX          XX      XX    XX      ",
"XX  XXXX            ....    XXXX          XX      XX    XX      "
};
