/* XPM */
static char *c691e5664fac4212ef9bb91e2a98baeazU4Q3uzMbbo8AqBm[] = {
/* columns rows colors chars-per-pixel */
"64 64 35 1 ",
"  c #0D2A33",
". c #152333",
"X c #113837",
"o c #D42665",
"O c #E0A372",
"+ c #481E92",
"@ c #6331AD",
"# c #FD6C91",
"$ c #FF6F92",
"% c #FF7090",
"& c #FF7493",
"* c #FF7B9A",
"= c #A350F6",
"- c #FF859D",
"; c #FD899E",
": c #FC8C9C",
"> c #FF8EA2",
", c #FB94A7",
"< c #FF95A6",
"1 c #FF94AA",
"2 c #FF9BAB",
"3 c #FEACBC",
"4 c #CE8BFF",
"5 c #FDCBD5",
"6 c #FAE1CF",
"7 c #F6E2D4",
"8 c #F9E2D1",
"9 c #FCE2D2",
"0 c #F9E4D6",
"q c #FCE4D4",
"w c #F9E4D8",
"e c #F9EBFF",
"r c #FCECFF",
"t c snow",
"y c white",
/* pixels */
"          ....      ..        XX      XX      XX  XXXX    XX  XX",
"          ....      ..        XX      XX      XX  XXXX    XX  XX",
"  XX      XX                                                XX  ",
"  XX      XX                                                XX  ",
"  XXXX  OO..                  ....  XX..              XX    XX  ",
"  XXXX  OO..                  ....  XX..              XX    XX  ",
"    XXOOwwOO    ..          XX  XX          XX      XX  XX      ",
"    XXOOwwOO    ..          XX  XX          XX      XX  XX      ",
"XX    OO00OOXXXX        XX                      ......          ",
"XX    OO00OOXXXX        XX                      ......          ",
"  XX    OOwwOO    XX..         oooo       ......  XX            ",
"  XX    OOwwOO    XX..         oooo       ......  XX            ",
"      ..OO88OOXX  XX    XX   oo>><<ooX  XX  XXXXXX              ",
"      ..OO88OOXX  XX    XX   oo>><<ooX  XX  XXXXXX              ",
"..      OO77OO  XXXX    .. oo22tt--**oo   XX                    ",
"..      OO77OO  XXXX    .. oo22tt--**oo   XX                    ",
"..        OO99OO      ..  .oo11--&&$$oo   XX                ....",
"..        OO99OO      ..  .oo11--$$$$oo   XX                ....",
"      ....OOqqOOXX           oo$$%$oo   XX  ..XX  ..      ..    ",
"      ....OOqqOOXX    oo     oo$$$$oo   XX  ..XX  ..      ..    ",
"      XXXX..OO88OO    oo....   ooooXXX  Xoo           XX        ",
"      XXXX..OO88OO  oo33oo..   ooooXXX  Xoo           XX        ",
"          ++++++++++++++++++oooo$$$$$$$$55$$$$$$oo++++XX        ",
"          ++++++++++++++++++oooo$$$$$$$$55$$$$$$oo++++XX        ",
"..    ..++444444444444444444==========;;;,;;;;::oo====++    ..  ",
"..    ..++444444444444444444==========;;;,;;;;::oo====++    ..  ",
"....      +++++++++++++++++++++++++++++++ooooooo++++++  XX    ..",
"....      +++++++++++++++++++++++++++++++ooooooo++++++  XX    ..",
"        ++++44444444==@@@@@@@@@@@@@@@@@@@@@@@@@@@@@@@@++    ....",
"        ++++44444444==@@@@@@@@@@@@@@@@@@@@@@@@@@@@@@@@++    ....",
"        ++4444rr44====================================++        ",
"        ++4444rr44====================================++        ",
"  XXXX  ++4444ee44====================================++    ..  ",
"  XXXX  ++4444ee44====================================++    ..  ",
"      ++4444yy==========================================++      ",
"      ++4444yy==========================================++      ",
"  ..  ++4444yy==========================================++..    ",
"  ..  ++4444yy==========================================++..    ",
"XXXX  ++4444============================================++  ..XX",
"XXXX  ++4444============================================++  ..XX",
"  XX  ++4444============================================++      ",
"  XX  ++4444============================================++      ",
"....  ++4444============================================++      ",
"....  ++4444============================================++      ",
"        ++44==========================================++....    ",
"        ++44==========================================++....    ",
"        ++44==========================================++..XXXX  ",
"        ++44==========================================++..XXXX  ",
"        ++4444========================================++        ",
"        ++4444========================================++        ",
"XX      ..++44======================================++XX        ",
"XX      ..++44======================================++XX        ",
"            ++4444================================++    ..XX  XX",
"            ++4444================================++    ..XX  XX",
"  XX  XX    OO++++44==========================++++OO....XX  XX  ",
"  XX  XX    OO++++44==========================++++OO....XX  XX  ",
"          OO999999++++++================++++++999999OO....XX    ",
"          OO999999++++++================++++++999999OO....XX    ",
"        OO6699OOOO    ++++++++++++++++++++    OOOO9988OO..  XX  ",
"        OO6699OOOO    ++++++++++++++++++++    OOOO9988OO..  XX  ",
"          OOOOXX                        XXXX      OOOO        ..",
"          OOOOXX                        XXXX      OOOO        ..",
"XX  XXXX            ....    XXXX          XX      XX    XX      ",
"XX  XXXX            ....    XXXX          XX      XX    XX      "
};
