/* XPM */
static char *f4fb5e58bb0b49aaf71dc0f8231b1747om9lg2ObC4yozaQj[] = {
/* columns rows colors chars-per-pixel */
"64 64 44 1 ",
"  c #0D2A33",
". c #152333",
"X c #113837",
"o c #D42665",
"O c #E0A372",
"+ c #481E92",
"@ c #53289B",
"# c #5023A1",
"$ c #6331AD",
"% c #6430AC",
"& c #FF6A8B",
"* c #FF6F8E",
"= c #FF6F91",
"- c #FF7090",
"; c #FF7593",
": c #FF7B96",
"> c #FF7B9A",
", c #A350F6",
"< c #FF839A",
"1 c #FF859D",
"2 c #FF929E",
"3 c #FF949E",
"4 c #FF8FA3",
"5 c #FF88A4",
"6 c #FF8EA6",
"7 c #FF90A0",
"8 c #FF94A5",
"9 c #FF94AA",
"0 c #FF98A8",
"q c #FFA4B4",
"w c #FFACB5",
"e c #FFB1BD",
"r c #FFB8C3",
"t c #CE8BFF",
"y c #FFCED6",
"u c #FFE7D2",
"i c #FFE7D4",
"p c #FFE8D7",
"a c #FFE8D9",
"s c #FAECFF",
"d c #FCEDFF",
"f c #FFF2F1",
"g c snow",
"h c white",
/* pixels */
"          ....      ..        XX      XX      XX  XXXX    XX  XX",
"          ....      ..        XX      XX      XX  XXXX    XX  XX",
"  XX      XX                      oooo                      XX  ",
"  XX      XX                      oooo                      XX  ",
"  XXXX  OO..                  ..oo4488oo              XX    XX  ",
"  XXXX  OO..                  ..oo4488oo              XX    XX  ",
"    XXOOaaOO    ..          XXoo00gg11>>oo  XX      XX  XX      ",
"    XXOOaaOO    ..          XXoo00gg11>>oo  XX      XX  XX      ",
"XX    OOppOOXXXX        oo    oo99<<;;==oo      ......          ",
"XX    OOppOOXXXX        oo    oo99<<;;==oo      ......          ",
"  XX    OOaaOO    XX..ooeeoo    oo**--oo  ......  XX            ",
"  XX    OOaaOO    XX..ooeeoo    oo**--oo  ......  XX            ",
"      ..OOuuOOXX  XX    oo        oooo  XX  XXXXXX              ",
"      ..OOuuOOXX  XX    oo        oooo  XX  XXXXXX              ",
"..      OOiiOO  XXXX    ..  ..            XXoo                  ",
"..      OOiiOO  XXXX    ..  ..            XXoo                  ",
"..        OOiiOO      ..  ..  ..          oo66oo            ....",
"..        OOiiOO      ..  ..  ..          oo66oo            ....",
"      ....OOiiOOXX            ..        XX  ooXX  ..      ..    ",
"      ....OOiiOOXX            ..        XX  ooXX  ..      ..    ",
"      XXXX..OOiiOO      ....      XXXX  XX            XX        ",
"      XXXX..OOiiOO      ....      XXXX  XX            XX        ",
"          ##################oo000000000000000000oo####XX        ",
"          ##################oo000000000000000000oo####XX        ",
"..    ..++ttttttttttttttttttoo33hh0088ffyy447722oo,,,,++    ..  ",
"..    ..++ttttttttttttttttttoo33hh0088ffyy447722oo,,,,++    ..  ",
"....      ++++++++++++++++++++ooqq;;oorr0044----oo++++  XX    ..",
"....      ++++++++++++++++++++ooqq;;oorr0044----oo++++  XX    ..",
"        ++++tttttttt,,$$$$$$$$$$oo--$$ww55:;==&&oo$$$$++    ....",
"        ++++tttttttt,,$$$$$$$$$$oo--$$ww55:;==&&oo$$$$++    ....",
"        ++ttttddtt,,,,,,,,,,,,,,oo;;$$oooo-;==&&oo,,,,++        ",
"        ++ttttddtt,,,,,,,,,,,,,,oo;;$$oooo--==&&oo,,,,++        ",
"  XXXX  ++ttttsstt,,,,,,,,,,,,,,$$;;$$$$oo--==&&oo,,,,++    ..  ",
"  XXXX  ++ttttsstt,,,,,,,,,,,,,,$$;;$$$$oo--==&&oo,,,,++    ..  ",
"      ++tttthh,,,,,,,,,,,,,,,,,,,,oo%%,,$$oo==&&oo,,,,,,++      ",
"      ++tttthh,,,,,,,,,,,,,,,,,,,,oo%%,,$$oo==&&oo,,,,,,++      ",
"  ..  ++tttthh,,,,,,,,,,,,,,,,,,,,%%,,,,$$oo****oo,,,,,,++..    ",
"  ..  ++tttthh,,,,,,,,,,,,,,,,,,,,%%,,,,$$oo****oo,,,,,,++..    ",
"XXXX  ++tttt,,,,,,,,,,,,,,,,,,,,,,,,,,,,$$oo--oo%%,,,,,,++  ..XX",
"XXXX  ++tttt,,,,,,,,,,,,,,,,,,,,,,,,,,,,$$oo--oo%%,,,,,,++  ..XX",
"  XX  ++tttt,,,,,,,,,,,,,,,,,,,,,,,,,,,,$$oo--oo,,,,,,,,++      ",
"  XX  ++tttt,,,,,,,,,,,,,,,,,,,,,,,,,,,,$$oo--oo,,,,,,,,++      ",
"....  ++tttt,,,,,,,,,,,,,,,,,,,,,,,,,,,,$$oo--oo,,,,,,,,++      ",
"....  ++tttt,,,,,,,,,,,,,,,,,,,,,,,,,,,,$$oo--oo,,,,,,,,++      ",
"        ++tt,,,,,,,,,,,,,,,,,,,,,,,,,,,,%%oo--oo,,,,,,++....    ",
"        ++tt,,,,,,,,,,,,,,,,,,,,,,,,,,,,%%oo--oo,,,,,,++....    ",
"        ++tt,,,,,,,,,,,,,,,,,,,,,,,,,,,,,,%%oo%%,,,,,,++..XXXX  ",
"        ++tt,,,,,,,,,,,,,,,,,,,,,,,,,,,,,,%%oo%%,,,,,,++..XXXX  ",
"        ++tttt,,,,,,,,,,,,,,,,,,,,,,,,,,,,,,$$,,,,,,,,++        ",
"        ++tttt,,,,,,,,,,,,,,,,,,,,,,,,,,,,,,$$,,,,,,,,++        ",
"XX      ..++tt,,,,,,,,,,,,,,,,,,,,,,,,,,,,,,,,,,,,,,++XX        ",
"XX      ..++tt,,,,,,,,,,,,,,,,,,,,,,,,,,,,,,,,,,,,,,++XX        ",
"            ++tttt,,,,,,,,,,,,,,,,,,,,,,,,,,,,,,,,++    ..XX  XX",
"            ++tttt,,,,,,,,,,,,,,,,,,,,,,,,,,,,,,,,++    ..XX  XX",
"  XX  XX    OO++++tt,,,,,,,,,,,,,,,,,,,,,,,,,,++++OO....XX  XX  ",
"  XX  XX    OO++++tt,,,,,,,,,,,,,,,,,,,,,,,,,,++++OO....XX  XX  ",
"          OOiiiiii++++@@,,,,,,,,,,,,,,,,++++++iiiiiiOO....XX    ",
"          OOiiiiii++++@@,,,,,,,,,,,,,,,,++++++iiiiiiOO....XX    ",
"        OOuuiiOOOO    ++++++++++++++++++++    OOOOuuuuOO..  XX  ",
"        OOuuiiOOOO    ++++++++++++++++++++    OOOOuuuuOO..  XX  ",
"          OOOOXX                        XXXX      OOOO        ..",
"          OOOOXX                        XXXX      OOOO        ..",
"XX  XXXX            ....    XXXX          XX      XX    XX      ",
"XX  XXXX            ....    XXXX          XX      XX    XX      "
};
