/* XPM */
static char *b7393692037848eca14118665b271882I3VfskItreeeF14X[] = {
/* columns rows colors chars-per-pixel */
"64 64 50 1 ",
"  c #0D2A33",
". c #152333",
"X c #113837",
"o c #4E291B",
"O c #541D57",
"+ c #551E58",
"@ c #811C3D",
"# c #9E0F5C",
"$ c #9E1460",
"% c #A21565",
"& c #AC176D",
"* c #B21872",
"= c #BC1A7B",
"- c #BE1A7C",
"; c #C41666",
": c #C31E6B",
"> c #C61F6F",
", c #D2247D",
"< c #E3A852",
"1 c #FCFC67",
"2 c #6630DA",
"3 c #6831DD",
"4 c #6C33E1",
"5 c #6F50D2",
"6 c #7857DC",
"7 c #7A59DF",
"8 c #C21B80",
"9 c #C61C84",
"0 c #CF1D8C",
"q c #E76184",
"w c #805DE5",
"e c #EF9497",
"r c #EF9699",
"t c #CF8DB6",
"y c #CA89BB",
"u c #D08FB7",
"i c #CF90BA",
"p c #FF9DB6",
"a c #C9A2B1",
"s c #FABBBE",
"d c #C79AD7",
"f c #E0BFD9",
"g c #D194F5",
"h c #DEC1DA",
"j c #FFE1D1",
"k c #FFE4D5",
"l c #E8E2E6",
"z c #E8E1EE",
"x c #F7E7EF",
"c c #FAFCFE",
/* pixels */
"          ....      ..        XX      XX      XX  XXXX    XX  XX",
"          ....      ..        XX      XX      XX  XXXX    XX  XX",
"  XX      XX             ::xxxxx::::                        XX  ",
"  XX      XX             ::xxxxx::x:                        XX  ",
"  XXXX  ....         :::::::xxx::::::x..              XX    XX  ",
"  XXXX  ....         :::::::::::::::xxx.              XX    XX  ",
"    XX          .. $:::::::::::::::xxxxx    XX      XX  XX      ",
"    XX          .. $:x:::::::::::::xxxxx    XX      XX  XX      ",
"XX      ..XXXXXX dd::::::xx::::::::xxxxxx       ......          ",
"XX      ..XXXXXX dxx:::::xx::::::::xxxxxxxx     ......          ",
"  XX    ..     dddxx:::::::::::x:::xxxxxxxx.....  XX            ",
"  XX    ..     ddxxxx:::::::::xxx::xxxxxxxxx....  XX            ",
"      ......XXdddxxxx:::::::::xxx:::xxxxxxxxXXXXXX              ",
"      ......XXddxxxxx::::::::::x::::xxxxxxxxxXXXXX              ",
"..      ..    ddxxxx::::xxx::::::::::xxxxxxxx                   ",
"..      ..    ddxxxx:::xxxxx:::::::::::xxxxxxx                  ",
"..          Xddxxxx:::xxxxxxx::::::::::::::::::             ....",
"..          Xddxx:::::xxxxxxx:::::::::::::::::::            ....",
"      ....  $$$:::::::xxxxxxx::::::x::::::::::::: ..      ..    ",
"      ....  $$:::::::::xxxxx::::::::::::::::::::xx..      ..    ",
"      XXXX..$$::::::::::xxx:::::::::::::::x::::xxxxx:::X        ",
"      XXXX..$$:::::::::::::::::$$$$$$$$$$cxx:::xxxxx:::X        ",
"           $$:::xxx::::::::::::uuuuuuuuuu:x::::xxxxx:::x:       ",
"           $$:::xxx::::x:::$$$$uuuuuuuuuu$$$$:::xxx::::$$       ",
"..    ....dd::::xxx::::::::uuuyhhhhhhhhhhuuuu:::::::::$$$:; ..  ",
"..    .dddddx::::::::::$$$$uuuuhhhhhhhhhhuuuu$$$$$$$$$$$$#; ..  ",
"....   ddddxxx:::::::::iuuuhhhhhhzzuuhhhhzzhhuuOOOOOOOO$$##   ..",
".... ddddddxxx::::$$$$$uuuuhhhhhhzzuuhhhhzzhhuuOOOOOOOOO$##   ..",
"     dddddddxx::$$$uuuuhhhhuuhhhhzzuuhhzzuuhhzzOOOOOOOOO$   ....",
"    $ddddddddd$$$$$uuuuhhhhuuhhhhzzuuhhzzuuhhzzOOOOOOOOO#   ....",
"    $ddddddd$$$$$uuhhhhhhuueeuuuuuuuuuuuuuuhhzz+OOOOOO$         ",
"    $dddddd$$$$$$uuhhhhhhuueeuuuuuuuuuuuuuuhhzzOOOOOOO$         ",
"  XXXddddd$$$$$OOhhhhhhhhuussssoojjjjoojjuuuu+OOOOOO$       ..  ",
"  XXXdd$$$$$OOOOOhhhhhhhhuussssoojjjjoojjuuutOOOO$$$$       ..  ",
"      $$$$OOOOOOOhhhherhhuussppoojjjjooppuuOOOO$$               ",
"      $$$$OOOOOOOhhhheehhuussppoojjjjooppuu$$$$$$               ",
"  ..   $$$$OOOOO$hhhhjjhhuussssjj@@@@jjjjuu ..          ....    ",
"  ..    $$$$$$$$$hhhhjkhhuussssjj@@@@jjjjuu ..          ....    ",
"XXXX             hhhhuuhhuussssjjqqqqjjjjuhhh.XX            ..XX",
"XXXX             hhhhuuhhuussssjjqqqqjjjjuhhh.XX            ..XX",
"  XX     hf      hhhhuuuu$=wwggeeeewwgg$$uhhhhh  hh XXXX..      ",
"  XX     hh      hhhhuuuu$=wwggeeeewwgg$$uhhhhh  hh XXXX..      ",
"....     hhhhhhhhhhhhuu$$$=wwgg*$$%wwgg$$$$uhhhhhhh ....        ",
"....     hhhhhhhhhhhhuu$$%8wwgg*$$%wwgg$$$$uhhhhhhh ....        ",
"           hhhhhhhhuu$$$$24wwgg,::>wwgg$$$$uuuuuu.    XX....    ",
"           hhhhhhuuuu$$$$24wwgg,::>wwgg&&$$uuuuuu.    XX....    ",
"            .hhuuuujj$$$$24<<117556<<11ww9$jjuu   XXXX  ..XXXX  ",
"            .uuuuuujj****34<<11wwww<<11ww0-jjuu   XXXX  ..XXXX  ",
"        XX  XXXXXjjeeee444444wwwwwwwwwwggggeejj       XX        ",
"        XX  XXXXXjjeeee444444wwwwwwwwwwggggeejj       XX        ",
"XX      ..    .. eeeeee4444wwwwwwwwggggggggeeee   XX..XX        ",
"XX      ..    .. eeeeee4444wwwwwwwwggggggggeeee   XX..XX        ",
"                     444444wwwwwwgggggggggg       ..    ..XX  XX",
"                     444444wwwwwwgggggggggg       ..    ..XX  XX",
"  XX  XX             4444444444444444444444   ....  ....XX  XX  ",
"  XX  XX             4444444444444444444444   ....  ....XX  XX  ",
"            ..          XX eejjX   eejj.          ..  ....XX    ",
"            ..          XX eejjX   eejj.          ..  ....XX    ",
"                XX        Xaall    aall         XX  XX  ..  XX  ",
"                XX        Xaall    aall         XX  XX  ..  XX  ",
"          ..  XX           $$;;;;  $$;;;;XXX      XX..        ..",
"          ..  XX           $$;;;;  $$;;;;XXX      XX..        ..",
"XX  XXXX            ....   $$;;;;;;$$;;;;;;X      XX    XX      ",
"XX  XXXX            ....   $$;;;;;;$$;;;;;;X      XX    XX      "
};
