/* XPM */
static char *_c9ee1ee7ace4217f4e21ed2b8ce813cM8HmjYeEWg3kOfOZ[] = {
/* columns rows colors chars-per-pixel */
"64 64 53 1 ",
"  c #0D2A33",
". c #152333",
"X c #113837",
"o c #811C3D",
"O c #B42E65",
"+ c #AD3A68",
"@ c #B23165",
"# c #914298",
"$ c #A948B1",
"% c #AE4DB7",
"& c #D64588",
"* c #E5488F",
"= c #E24D8E",
"- c #EA4B8E",
"; c #E2528E",
": c #E84793",
"> c #E64B91",
", c #E64F93",
"< c #E64B95",
"1 c #E64D97",
"2 c #EA4B91",
"3 c #EA4D91",
"4 c #E84D94",
"5 c #F54F96",
"6 c #E65293",
"7 c #E35493",
"8 c #E65492",
"9 c #E75194",
"0 c #E95193",
"q c #ED5193",
"w c #ED5295",
"e c #E65198",
"r c #EA5598",
"t c #F55799",
"y c #F55899",
"u c #FB5899",
"i c #F98EBC",
"p c #F990C0",
"a c #FFA0D2",
"s c #FBAED2",
"d c #FFB7DF",
"f c #DDBFF1",
"g c #FFBCE4",
"h c #FFC7EC",
"j c #FFCCEA",
"k c #FFCAEF",
"l c #FFCCEE",
"z c #FFC7F1",
"x c #FFCBF0",
"c c #FFCEF1",
"v c #FFCFF4",
"b c #FFCEFA",
"n c white",
/* pixels */
"          ....      ..        XX      XX      XX  XXXX    XX  XX",
"          ....      ..        XX      XX      XX  XXXX    XX  XX",
"  XX      XX                                                XX  ",
"  XX      XX                                                XX  ",
"  XXXX  ....                  ....  XX..              XX    XX  ",
"  XXXX  ....                  ....  XX..              XX    XX  ",
"    XX          ..          XX  XX          XX      XX  XX      ",
"    XX          ..          XX  XX          XX      XX  XX      ",
"XX      ..XXXXXX        XX                      ......          ",
"XX      ..XXXXXX        XX                      ......          ",
"  XX    ..        XX..          ..        ......  XX            ",
"  XX    ..        XX..          ..        ......  XX            ",
"      ......XXXX  XX    XX        XXXX  XX  XXXXXX              ",
"      ......XXXX  XX    XX        XXXX  XX  XXXXXX              ",
"..      ..      XXXX    ..  ..            XX                    ",
"..      ..      XXXX    ..  ..            XX                    ",
"..          XX        ..  ..  ..          XX                ....",
"..          XX        ..  ..  ..          XX                ....",
"      ....    XXXX            ..        XX  ..XX  ..      ..    ",
"      ....    XXXX            ..        XX  ..XX  ..      ..    ",
"      XXXX..            ....oooooooooo  XX            XX        ",
"      XXXX..            ....oooooooooo  XX            XX        ",
"                    ..    ooyyyyyyttuuooXX          XXXX        ",
"                    ..    ooyyyyyyttuuooXX          XXXX        ",
"..    ....    XX  ....XXoooo,,ppiiii,,oo  ..  ..    ..XX    ..  ",
"..    ....    XX  ....XXoooo,,ppiiii,,oo  ..  ..    ..XX    ..  ",
"....      ..XXXX    XXoooo,,00kkxxkk3366ooXXXX  ..  ..  XX    ..",
"....      ..XXXX    XXoooo,,00kkxxkk3366ooXXXX  ..  ..  XX    ..",
"        XX    XX  ..oo&&;;**,,xxcccc33>>::oooo      ..      ....",
"        XX    XX  ..oo&&;;**,,xxcccc33>>::oooo      ..      ....",
"                ..  oossjjvvqq99<<88--kkeeoooo..                ",
"                ..  oossjjvvqq99<<88--kkeeoooo..                ",
"  XXXX            oobbzzllkkll22,,,,rr33,,55@@oo            ..  ",
"  XXXX            oobbzzllkkll22,,,,rr33,,55@@oo            ..  ",
"      XX..    XX  ooccllkkkkhh77,,,,,,,,3333++oo                ",
"      XX..    XX  ooccllkkkkhh77,,,,,,,,3333++oo                ",
"  ..    XXXXXX  XXooaaggkkllaa66,,,,,,,,3333++oo        ....    ",
"  ..    XXXXXX  XXooaaggkkllaa66,,,,,,,,3333++oo        ....    ",
"XXXX              oowwddkkxx1111,,,,==44,,,,OOoo            ..XX",
"XXXX              oowwddkkxx1111,,,,==44,,,,OOoo            ..XX",
"  XX              ..oooooo##$$$$$$$$%%##oooooo      XXXX..      ",
"  XX              ..oooooo##$$$$$$$$%%##oooooo      XXXX..      ",
"....      XXXX          ..##ffffnnnnnn##..    ..    ....        ",
"....      XXXX          ..##ffffnnnnnn##..    ..    ....        ",
"            ..        XX  ##ffffnnnnnn##XX      ..    XX....    ",
"            ..        XX  ##ffffnnnnnn##XX      ..    XX....    ",
"            ......        ##ffffnnnnnn##          XXXX  ..XXXX  ",
"            ......        ##ffffnnnnnn##          XXXX  ..XXXX  ",
"        XX  XXXXXX..  XX    ##########  ..            XX        ",
"        XX  XXXXXX..  XX    ##########  ..            XX        ",
"XX      ..    ..    ..      XXXX                  XX..XX        ",
"XX      ..    ..    ..      XXXX                  XX..XX        ",
"                        XX  ......XX              ..    ..XX  XX",
"                        XX  ......XX              ..    ..XX  XX",
"  XX  XX                  ..    ....          ....  ....XX  XX  ",
"  XX  XX                  ..    ....          ....  ....XX  XX  ",
"            ..          XX    XX      ..          ..  ....XX    ",
"            ..          XX    XX      ..          ..  ....XX    ",
"                XX        XXXX                  XX  XX  ..  XX  ",
"                XX        XXXX                  XX  XX  ..  XX  ",
"          ..  XX                        XXXX      XX..        ..",
"          ..  XX                        XXXX      XX..        ..",
"XX  XXXX            ....    XXXX          XX      XX    XX      ",
"XX  XXXX            ....    XXXX          XX      XX    XX      "
};
